<svg width="42" height="24" viewBox="0 0 42 24" fill="none" xmlns="http://www.w3.org/2000/svg">
<g clip-path="url(#clip0_105_157)">
<path d="M9.28844 15.76C7.13844 15.76 5.39844 17.5 5.39844 19.65C5.39844 21.8 7.13844 23.54 9.28844 23.54C11.4384 23.54 13.1784 21.8 13.1784 19.65C13.1784 17.5 11.4384 15.76 9.28844 15.76ZM9.28844 21.34C8.35844 21.34 7.59844 20.58 7.59844 19.65C7.59844 18.72 8.35844 17.96 9.28844 17.96C10.2184 17.96 10.9784 18.72 10.9784 19.65C10.9784 20.58 10.2184 21.34 9.28844 21.34Z" fill="#F9F9F9"/>
<path d="M32.1283 15.76C29.9783 15.76 28.2383 17.5 28.2383 19.65C28.2383 21.8 29.9783 23.54 32.1283 23.54C34.2783 23.54 36.0183 21.8 36.0183 19.65C36.0183 17.5 34.2783 15.76 32.1283 15.76ZM32.1283 21.34C31.1983 21.34 30.4383 20.58 30.4383 19.65C30.4383 18.72 31.1983 17.96 32.1283 17.96C33.0583 17.96 33.8183 18.72 33.8183 19.65C33.8183 20.58 33.0583 21.34 32.1283 21.34Z" fill="#F9F9F9"/>
<path d="M39.56 0H4.65C3.37 0 2.12 1.03 1.86 2.28L0.46 7.37C0.21 8.63 0 10.7 0 11.97V17.32C0 18.6 1.05 19.65 2.33 19.65H4.7C4.7 17.12 6.76 15.06 9.29 15.06C11.82 15.06 13.88 17.12 13.88 19.65H27.55C27.55 17.12 29.61 15.06 32.14 15.06C34.67 15.06 36.73 17.12 36.73 19.65H39.57C40.85 19.65 41.89 18.6 41.89 17.32V2.32C41.88 1.05 40.84 0 39.56 0ZM9.66 9.81H4.24L5.1 7.78C5.25 7.43 5.08 7.02 4.73 6.87C4.38 6.71 3.97 6.88 3.82 7.23L2.75 9.76C2.03 9.57 1.6 8.89 1.74 8.1L3 3.11C3.17 2.17 4.1 1.39 5.06 1.39H9.67V9.81H9.66ZM20.01 9.81H11.06V1.39H20.01V9.81ZM30.36 9.81H21.4V1.39H30.35V9.81H30.36ZM40.46 8.07C40.46 9.03 39.68 9.81 38.72 9.81H31.76V1.39H38.72C39.68 1.39 40.46 2.18 40.46 3.13V8.07Z" fill="#F9F9F9"/>
</g>
<defs>
<clipPath id="clip0_105_157">
<rect width="41.88" height="23.54" fill="white"/>
</clipPath>
</defs>
</svg>
