<svg width="704" height="181" viewBox="0 0 704 181" fill="none" xmlns="http://www.w3.org/2000/svg">
<g clip-path="url(#clip0_105_61)">
<path d="M89.8806 -1.30806e-05C38.9806 -0.230013 0.150572 40.75 0.000572128 89.4C-0.0794279 113.44 8.23057 134.49 24.7606 151.95C41.3206 169.43 61.8406 179.02 85.9706 180.01C111.751 181.07 134.031 172.42 152.431 154.27C169.851 137.08 178.931 116.04 179.451 91.67C180.581 39.66 139.221 -0.0600131 89.8806 -1.30806e-05Z" fill="#036635"/>
<path d="M176.299 89.4799C176.309 100.25 174.359 110.67 170.589 120.72C167.499 128.97 163.129 136.53 157.709 143.5C154.489 147.65 150.889 151.43 147.039 154.94C140.309 161.07 132.719 165.99 124.389 169.69C118.409 172.35 112.219 174.35 105.749 175.4C102.839 175.87 99.9094 176.23 96.9794 176.5C94.2394 176.75 91.4694 176.99 88.7294 176.93C81.2694 176.78 73.9094 175.84 66.7194 173.79C60.4794 172.01 54.4894 169.59 48.8094 166.48C43.6394 163.66 38.7294 160.43 34.3394 156.48C31.5994 154.02 28.8494 151.55 26.3194 148.88C22.4994 144.85 19.2194 140.37 16.2994 135.64C11.8194 128.36 8.38935 120.61 6.22935 112.35C5.29935 108.77 4.73935 105.09 4.12935 101.44C3.34935 96.8299 3.06935 92.1699 3.26935 87.5099C3.42935 83.7899 3.87935 80.0799 4.32935 76.3899C5.17935 69.3899 7.22935 62.6799 9.95935 56.2199C12.4494 50.3499 15.5294 44.7799 19.1994 39.5399C22.8194 34.3699 26.9794 29.6699 31.6094 25.4299C38.0994 19.4999 45.3994 14.7399 53.3994 11.0799C59.2894 8.38993 65.3994 6.34993 71.7594 5.11993C74.8594 4.51993 78.0094 4.01993 81.1494 3.79993C85.5194 3.48993 89.9094 3.18993 94.2794 3.37993C103.449 3.78993 112.369 5.65993 120.949 8.95993C128.829 11.9899 136.209 15.9599 142.789 21.2799C145.749 23.6699 148.709 26.1099 151.389 28.8099C158.529 35.9999 164.189 44.2499 168.429 53.4599C171.589 60.3199 173.759 67.4999 175.039 74.9199C175.529 77.7599 175.709 80.6499 175.959 83.5199C176.139 85.5099 176.199 87.4999 176.299 89.4799ZM173.489 89.8099C173.289 86.8799 173.179 83.9399 172.859 81.0299C172.509 77.8899 172.159 74.7199 171.479 71.6399C169.529 62.7599 166.239 54.3699 161.559 46.5599C158.319 41.1499 154.529 36.1699 150.099 31.6599C146.339 27.8299 142.289 24.3499 137.909 21.2399C132.729 17.5599 127.179 14.5699 121.299 12.2199C115.799 10.0199 110.149 8.32993 104.269 7.52993C100.439 6.99993 96.5994 6.50993 92.7494 6.25993C90.1494 6.08993 87.5194 6.27993 84.9094 6.45993C81.7394 6.66993 78.5493 6.83993 75.4193 7.37993C68.4293 8.57993 61.6694 10.5599 55.1594 13.4799C46.8294 17.2099 39.3693 22.2199 32.6693 28.3599C28.6593 32.0299 25.1594 36.1899 21.9694 40.5899C17.8594 46.2699 14.5194 52.3999 11.9394 58.9099C9.86935 64.1399 8.19935 69.5099 7.43935 75.1199C6.92935 78.8399 6.34935 82.5699 6.15935 86.3099C5.89935 91.3699 6.25935 96.4299 6.95935 101.46C7.58935 105.9 8.53935 110.24 9.81935 114.53C11.6494 120.68 14.2694 126.51 17.4694 132.05C20.9294 138.05 25.0094 143.63 29.9194 148.54C31.8194 150.44 33.8194 152.23 35.8294 154.01C40.2294 157.93 45.1194 161.17 50.2694 163.99C55.8494 167.04 61.7094 169.47 67.8594 171.16C74.7294 173.05 81.7394 173.97 88.8194 174.03C92.9894 174.06 97.1794 173.71 101.319 173.15C105.229 172.62 109.109 171.72 112.939 170.75C119.139 169.18 124.899 166.5 130.469 163.38C136.059 160.25 141.209 156.5 145.889 152.15C149.579 148.72 152.959 145 156.029 140.98C160.499 135.12 164.159 128.83 166.989 122.03C171.259 111.72 173.339 100.98 173.489 89.8099Z" fill="white"/>
<path d="M89.7108 122.86C80.6908 122.86 71.6708 122.88 62.6608 122.84C61.3908 122.83 60.0808 122.72 58.8708 122.37C55.8008 121.49 54.3308 119.61 54.2708 116.35C54.1408 107.85 54.1508 99.35 54.2608 90.85C54.3008 87.94 54.8208 85.0301 55.0808 82.1201C55.2708 80.0401 55.3508 77.95 55.5608 75.88C55.9708 71.89 56.0508 67.82 56.9808 63.95C58.2708 58.55 62.1308 55.2 67.4908 53.95C70.9508 53.14 74.5108 52.5901 78.0608 52.4001C84.5008 52.0501 90.9608 51.8101 97.3908 51.9701C102.801 52.1101 108.261 52.41 113.441 54.32C119.051 56.38 122.311 60.3501 122.961 66.3301C123.241 68.8701 123.391 71.4301 123.641 73.9801C123.991 77.6501 124.401 81.32 124.731 85C124.931 87.22 125.141 89.4601 125.171 91.6901C125.291 99.1801 125.371 106.68 125.381 114.17C125.381 115.57 125.071 116.99 124.741 118.37C124.081 121.13 121.621 122.56 119.051 122.62C110.891 122.78 102.731 122.8 94.5808 122.87C92.9608 122.87 91.3408 122.86 89.7108 122.86ZM89.3908 73.35C89.5308 73.33 89.6708 73.3201 89.8108 73.3001C90.0708 73.6301 90.5308 73.9401 90.5708 74.3001C90.7908 76.2701 90.9608 78.2401 91.0308 80.2201C91.1508 83.6801 91.2008 87.1501 91.2608 90.6201C91.2908 91.9501 91.7908 92.4801 93.1108 92.4801C100.721 92.4801 108.331 92.53 115.951 92.46C119.121 92.43 121.171 89.9 121.161 86.99C121.161 84.88 120.761 82.78 120.521 80.68C120.161 77.5601 119.771 74.45 119.431 71.34C119.061 67.89 116.441 65.42 113.131 65.42C97.5008 65.44 81.8708 65.43 66.2408 65.43C63.8108 65.43 62.0908 66.66 60.9108 68.68C60.0508 70.14 60.1008 71.81 59.9508 73.45C59.7308 75.99 59.3908 78.52 59.1008 81.06C58.9208 82.66 58.8608 84.28 58.5308 85.84C57.8208 89.25 60.3408 92.48 63.8208 92.49C69.6208 92.49 75.4208 92.49 81.2208 92.49C82.9908 92.49 84.7708 92.49 86.5408 92.49C87.2908 92.49 87.9608 92.2701 88.1208 91.4401C88.2608 90.7201 88.3308 89.98 88.3608 89.25C88.5208 84.54 88.6508 79.8301 88.8408 75.1201C88.8708 74.5101 89.2008 73.93 89.3908 73.35ZM83.6808 103.42C83.6808 103.4 83.6808 103.37 83.6808 103.35C82.6808 103.35 81.6808 103.32 80.6908 103.37C80.4408 103.38 80.0908 103.56 80.0008 103.76C79.9108 103.96 80.0308 104.32 80.1808 104.54C80.3808 104.84 80.6708 105.1 80.9608 105.32C82.2608 106.31 83.5908 107.27 84.8708 108.29C85.0708 108.45 85.2008 108.9 85.1308 109.16C84.6208 111.05 84.0208 112.91 83.5108 114.8C83.4308 115.11 83.5308 115.69 83.7408 115.81C83.9908 115.96 84.5308 115.86 84.8008 115.66C86.1808 114.64 87.5908 113.64 88.8508 112.48C89.6608 111.73 90.1408 111.96 90.8308 112.54C92.1208 113.61 93.4508 114.63 94.8108 115.61C95.1008 115.82 95.7808 115.95 95.9308 115.79C96.1908 115.51 96.3408 114.93 96.2308 114.56C95.7408 112.86 95.1908 111.16 94.5508 109.51C94.2608 108.76 94.4408 108.42 95.0608 107.98C96.4908 106.98 97.8608 105.89 99.2108 104.79C99.4708 104.58 99.6908 104.07 99.6208 103.78C99.5608 103.56 99.0008 103.36 98.6608 103.35C96.9208 103.31 95.1908 103.32 93.4508 103.37C92.7708 103.39 92.5308 103.13 92.3408 102.5C91.8208 100.84 91.2208 99.2 90.5808 97.59C90.4408 97.23 89.9608 97 89.6408 96.71C89.3708 97.01 88.9908 97.28 88.8608 97.63C88.5508 98.44 88.3808 99.3 88.1208 100.14C87.7908 101.17 87.7208 102.6 87.0008 103.1C86.2008 103.64 84.8108 103.34 83.6808 103.42ZM89.7808 56.3301C86.4208 56.3301 83.0608 56.3301 79.6908 56.3301C77.9308 56.3301 76.6608 57.46 76.6208 59.0601C76.5808 60.84 77.7808 62.09 79.6208 62.09C86.4208 62.11 93.2108 62.1 100.011 62.09C101.811 62.09 103.021 60.88 103.011 59.18C103.001 57.45 101.811 56.3301 99.9708 56.3301C96.5808 56.3301 93.1808 56.3301 89.7808 56.3301ZM64.3308 101.57C61.1408 101.39 58.4708 104.11 58.4808 107.35C58.4808 111.04 61.7308 113.14 64.2608 113.14C67.4008 113.13 70.1508 110.73 70.1608 107.36C70.1708 103.98 67.4108 101.4 64.3308 101.57ZM109.451 107.23C109.191 110.33 112.091 113.14 115.081 113.09C118.241 113.04 120.771 110.73 120.961 107.26C121.121 104.23 118.221 101.29 115.151 101.39C111.771 101.5 109.321 104.17 109.451 107.23Z" fill="white"/>
<path d="M57.5484 129.28C34.9884 110.5 33.1384 77.2998 51.3084 56.4398C71.5884 33.1698 106.458 33.8498 126.058 54.2198C147.298 76.2898 144.858 109.78 122.088 129.29C122.088 127.86 122.058 126.55 122.108 125.25C122.118 124.98 122.378 124.66 122.598 124.45C125.678 121.49 128.228 118.11 130.418 114.46C133.458 109.39 135.578 103.97 136.468 98.1198C136.908 95.2298 137.348 92.3098 137.318 89.3998C137.248 83.0498 135.918 76.9198 133.368 71.0598C130.558 64.6198 126.508 59.0898 121.338 54.3898C115.298 48.9098 108.238 45.2698 100.268 43.4698C95.9584 42.4998 91.5684 42.0898 87.1684 42.3698C79.2184 42.8698 71.7684 45.0698 64.9184 49.2498C60.8184 51.7498 57.1984 54.7898 54.0584 58.3898C49.1384 64.0398 45.5884 70.4698 43.8484 77.7698C43.1384 80.7598 42.7784 83.8498 42.4984 86.9198C41.8084 94.3298 43.2684 101.43 46.0584 108.26C48.5384 114.33 52.1084 119.71 56.8484 124.29C57.2384 124.66 57.4684 125.33 57.5284 125.89C57.6284 126.96 57.5484 128.04 57.5484 129.28Z" fill="white"/>
<path d="M104.488 14.3499C106.288 14.8199 108.078 15.2499 109.838 15.7699C111.918 16.3799 113.988 17.0299 116.038 17.7599C118.348 18.5899 119.848 20.6099 119.868 22.7199C119.888 24.9199 118.588 26.6399 116.458 27.2599C116.088 27.3699 115.718 27.4599 115.308 27.5699C116.718 28.7699 117.918 29.9899 117.878 31.9799C117.828 34.3699 116.308 36.2599 113.958 36.8299C112.178 37.2699 110.518 36.9099 108.818 36.3899C105.668 35.4299 102.488 34.5599 99.328 33.6499C99.158 33.5999 99.018 33.4599 98.918 33.3999C99.838 30.2199 100.758 27.0599 101.688 23.8999C102.608 20.7499 103.538 17.5999 104.488 14.3499ZM105.628 31.0399C106.988 31.4199 108.278 31.9099 109.618 32.1299C111.368 32.4199 111.868 31.7699 112.208 30.6299C112.458 29.7999 111.818 28.9999 110.498 28.4699C109.488 28.0699 108.448 27.7099 107.408 27.4299C107.188 27.3699 106.698 27.6699 106.608 27.9099C106.238 28.8399 105.988 29.8299 105.628 31.0399ZM109.028 19.7699C108.628 20.9699 108.268 22.0599 107.868 23.2799C108.998 23.5899 110.098 23.9199 111.208 24.1899C112.518 24.4999 113.378 24.0899 113.748 23.0399C114.048 22.1899 113.548 21.3599 112.278 20.8599C111.258 20.4399 110.178 20.1499 109.028 19.7699Z" fill="white"/>
<path d="M91.4497 25.8599C93.0397 28.2999 94.5897 30.6899 96.2897 33.3099C94.7797 33.2099 93.4797 32.9699 92.2097 33.0899C90.4497 33.2499 89.2897 32.7599 88.4697 31.0999C87.8597 29.8799 86.7997 28.8899 86.0897 27.7099C85.6297 26.9299 85.0997 26.7199 84.2797 26.8899C84.2797 28.9699 84.2797 31.0499 84.2797 33.2499C82.4897 33.4299 80.6497 33.6099 78.5797 33.8099C78.1897 27.1799 77.8097 20.6499 77.4297 14.1099C78.6497 13.9799 79.7297 13.8199 80.8197 13.7699C83.4897 13.6599 86.1797 13.3899 88.8397 13.5799C93.6397 13.9399 96.3897 17.4099 95.2497 22.0499C94.8897 23.5199 93.9397 24.6299 92.5397 25.2999C92.1697 25.4699 91.8297 25.6599 91.4497 25.8599ZM83.8997 23.1499C85.2797 22.9699 86.5197 22.8999 87.7097 22.6299C88.7397 22.3999 89.5397 21.1999 89.4797 20.2699C89.4097 19.1099 88.5797 18.0999 87.3697 17.9799C86.1997 17.8599 84.9997 17.9499 83.6697 17.9499C83.7497 19.6799 83.8197 21.2899 83.8997 23.1499Z" fill="white"/>
<path d="M76.5783 34.0999C74.4983 34.8599 72.4683 35.6099 70.4483 36.3499C69.5583 35.4099 68.6983 34.5099 67.7383 33.4899C65.8383 34.3399 63.8183 35.2299 61.8283 36.1699C61.5883 36.2899 61.3583 36.7199 61.3583 37.0099C61.3483 37.6599 61.3383 38.3699 61.5883 38.9499C62.1083 40.1699 61.4883 40.7299 60.5383 41.2399C58.9883 42.0799 57.4583 42.9699 55.8083 43.8999C55.6483 41.1799 55.5183 38.5899 55.3383 35.9999C55.0683 32.0899 54.7583 28.1799 54.4683 24.2699C54.4583 24.1599 54.4683 24.0499 54.4583 23.9399C54.3783 21.7899 54.3783 21.7699 56.3283 20.8999C57.9183 20.1899 59.5183 19.4899 61.1383 18.8699C61.4683 18.7499 62.0783 18.8699 62.3183 19.1199C65.6883 22.5799 69.0283 26.0699 72.3683 29.5699C73.7583 31.0299 75.1183 32.5299 76.5783 34.0999ZM65.0183 30.3199C63.3283 28.4199 61.7483 26.6399 60.1583 24.8699C60.0883 24.9199 60.0183 24.9599 59.9383 25.0099C60.2283 27.3699 60.5083 29.7299 60.8083 32.1399C62.2583 31.5199 63.5683 30.9499 65.0183 30.3199Z" fill="white"/>
<path d="M128.928 23.7C130.318 24.8 131.558 25.8799 132.908 26.8099C133.578 27.2699 133.578 27.5299 133.128 28.1299C130.838 31.1899 128.568 34.26 126.328 37.36C125.308 38.77 125.628 40.29 127.078 41.47C128.268 42.45 130.178 42.48 131.168 41.34C132.838 39.41 134.388 37.37 135.958 35.36C137.008 34.01 138.008 32.62 139.068 31.2C140.608 32.42 142.078 33.59 143.618 34.81C141.538 37.58 139.448 40.39 137.348 43.18C136.758 43.96 136.158 44.75 135.498 45.47C133.318 47.82 130.778 48.4899 127.708 47.2799C124.828 46.1499 122.468 44.3899 120.848 41.7999C119.348 39.4099 119.348 36.63 121.338 33.95C123.848 30.54 126.378 27.14 128.928 23.7Z" fill="white"/>
<path d="M157.198 55.5499C155.748 55.9599 154.408 56.3499 153.198 56.6999C152.538 54.8599 151.978 52.9999 151.208 51.2299C150.818 50.3399 150.258 49.3799 149.078 49.2399C148.048 49.1199 147.528 49.4699 147.628 50.4799C147.738 51.4999 148.118 52.4999 148.398 53.4999C148.788 54.8899 149.358 56.2599 149.538 57.6799C149.778 59.6499 148.878 62.5199 146.468 63.6299C144.278 64.6399 142.208 64.1299 140.328 62.7099C137.138 60.2899 135.468 56.9099 134.348 53.1899C134.178 52.6399 134.058 52.0399 134.098 51.4699C134.118 51.1499 134.448 50.6799 134.738 50.5799C135.998 50.1499 137.298 49.8299 138.398 49.5199C139.038 51.6199 139.608 53.6999 140.328 55.7399C140.558 56.3999 141.108 56.9599 141.578 57.5099C142.118 58.1499 142.938 58.3299 143.508 57.7699C143.908 57.3799 144.198 56.5299 144.068 55.9999C143.598 54.0699 142.758 52.2299 142.388 50.2899C141.618 46.2499 143.598 42.9899 147.608 43.0799C149.908 43.1299 151.688 44.5699 153.138 46.2799C154.998 48.4599 156.368 50.9299 157.038 53.7399C157.168 54.2799 157.148 54.8799 157.198 55.5499Z" fill="white"/>
<path d="M28.198 44.6799C29.288 45.8799 30.258 46.9599 31.188 47.9899C29.968 49.2799 28.828 50.4499 27.728 51.6699C27.438 51.9799 27.208 52.3799 27.068 52.7799C26.838 53.4499 26.778 54.1099 27.498 54.5999C28.218 55.0899 28.838 54.9299 29.418 54.3899C30.628 53.2599 31.768 52.0499 33.048 51.0199C36.538 48.1899 41.198 49.8599 42.248 54.2299C42.818 56.6199 42.158 58.7299 41.028 60.7899C39.608 63.3699 37.748 65.4899 35.118 66.8899C34.518 67.2099 34.078 67.2399 33.608 66.6699C32.818 65.7099 31.978 64.7999 31.258 63.9799C32.668 62.8399 34.148 61.8199 35.388 60.5699C36.168 59.7799 36.638 58.6599 37.158 57.6399C37.568 56.8399 37.138 56.1099 36.448 55.8599C35.988 55.6899 35.188 55.8699 34.798 56.1999C33.448 57.3299 32.278 58.6899 30.898 59.7799C29.188 61.1299 27.218 61.4299 25.148 60.5399C23.008 59.6099 22.218 57.8099 22.098 55.6499C21.938 52.7399 23.398 50.3999 25.048 48.2099C25.958 46.9499 27.118 45.8699 28.198 44.6799Z" fill="white"/>
<path d="M31.8477 39.25C36.2377 35.27 40.5077 31.4 44.8377 27.47C45.9177 28.66 46.9777 29.83 48.1377 31.11C46.6077 32.37 45.1177 33.59 43.5677 34.86C46.8577 38.6 50.0877 42.28 53.0077 45.59C51.7577 47.16 50.5777 48.65 49.3577 50.19C45.8177 46.24 42.5377 42.59 39.2477 38.93C37.9577 40.23 36.6477 41.56 35.2277 42.99C34.0777 41.72 33.0277 40.56 31.8477 39.25Z" fill="white"/>
<path d="M69.8086 136.98C70.5886 136.24 71.3086 135.52 72.0886 134.86C72.2686 134.71 72.6786 134.72 72.9386 134.79C75.9086 135.59 78.8586 136.49 81.8486 137.19C83.3286 137.54 84.8886 137.56 86.4186 137.71C87.2986 137.8 88.1786 137.92 89.0486 137.92C94.9586 137.93 100.719 136.96 106.279 134.96C106.899 134.74 107.309 134.72 107.779 135.25C108.329 135.87 108.989 136.4 109.709 137.07C96.3386 142.66 83.0886 142.66 69.8086 136.98Z" fill="white"/>
<path d="M16.7903 99.34C17.5003 96.97 18.0703 94.85 18.7903 92.78C19.0403 92.05 18.8303 91.68 18.3203 91.3C16.6603 90.06 15.0003 88.81 13.0703 87.37C14.8603 87.37 16.3803 87.37 17.9003 87.37C20.5803 87.37 20.5803 87.37 21.4103 84.81C21.6303 84.12 21.8503 83.44 22.0803 82.75C22.3103 82.07 22.5503 81.39 22.8703 80.47C23.3103 81.73 23.6903 82.8 24.0603 83.88C24.3603 84.78 24.7003 85.67 24.9203 86.59C25.0703 87.23 25.4003 87.38 26.0103 87.37C28.1103 87.34 30.2103 87.36 32.6003 87.36C31.1203 88.5 29.8703 89.5 28.5803 90.46C26.6703 91.87 26.6703 91.85 27.3803 94.18C27.8603 95.76 28.3003 97.36 28.8403 99.24C27.2203 97.98 25.8303 96.9 24.4303 95.82C24.1103 95.58 23.7503 95.38 23.4903 95.08C23.0203 94.54 22.6803 94.7 22.2003 95.09C20.4803 96.49 18.7303 97.83 16.7903 99.34Z" fill="white"/>
<path d="M152.84 91.87C150.9 90.4 149.01 88.97 146.98 87.43C149.52 87.43 151.9 87.43 154.36 87.43C155.11 85.11 155.84 82.83 156.66 80.28C157.37 82.48 158.06 84.41 158.61 86.37C158.83 87.14 159.14 87.42 159.95 87.39C161.98 87.33 164.01 87.37 166.32 87.37C164.86 88.49 163.62 89.5 162.33 90.44C160.45 91.8 160.44 91.78 161.1 94.03C161.59 95.71 162.08 97.39 162.64 99.29C160.89 97.9 159.31 96.68 157.76 95.42C157.05 94.84 156.52 94.58 155.65 95.35C154.14 96.7 152.45 97.86 150.57 99.3C151.37 96.63 152.1 94.28 152.84 91.87Z" fill="white"/>
<path d="M107.9 125.35C111.32 125.35 114.63 125.35 117.91 125.35C117.91 127.57 118.08 129.81 117.87 132.01C117.64 134.45 114.92 135.86 112.28 135.31C111.34 135.12 110.38 134.81 109.56 134.34C108.34 133.63 108.04 132.3 107.93 131.02C107.82 129.59 107.9 128.14 107.89 126.7C107.9 126.27 107.9 125.84 107.9 125.35Z" fill="white"/>
<path d="M61.3704 125.36C64.7104 125.36 67.9404 125.36 71.4404 125.36C71.3304 127.77 71.3704 130.19 71.0504 132.56C70.8404 134.12 69.2004 135.23 67.6204 135.27C66.5504 135.3 65.3904 135.44 64.4204 135.1C61.9604 134.24 61.5304 132.96 61.3704 130.7C61.3104 129.82 61.3704 128.93 61.3704 128.04C61.3704 127.16 61.3704 126.29 61.3704 125.36Z" fill="white"/>
<path d="M127.169 85.99C126.949 83.16 126.759 80.4 126.519 77.63C126.419 76.51 126.249 75.39 126.089 74.27C125.909 73 126.849 71.75 128.089 71.63C129.439 71.5 130.639 72.53 130.729 73.96C130.899 76.48 131.029 79.01 131.179 81.53C131.189 81.64 131.169 81.75 131.189 81.86C131.579 84.83 130.329 86.17 127.169 85.99Z" fill="white"/>
<path d="M52.2874 86.03C49.6074 85.96 48.1274 84.99 48.0874 83.31C48.0574 81.92 48.1574 80.52 48.2574 79.12C48.3774 77.29 48.5474 75.47 48.6874 73.64C48.7774 72.46 49.7274 71.62 50.9774 71.63C52.2474 71.64 53.1774 72.48 53.1074 73.75C52.9374 76.7 52.6774 79.65 52.4674 82.61C52.3874 83.73 52.3474 84.85 52.2874 86.03Z" fill="white"/>
<path d="M22.8423 109.28L22.6523 108.06L28.5323 107.14L28.7223 108.36L22.8423 109.28Z" fill="white"/>
<path d="M24.172 115.72L23.932 114.68L27.052 111.29L27.042 111.24L23.352 112.08L23.082 110.88L28.892 109.57L29.132 110.63L26.012 114L26.022 114.06L29.712 113.22L29.982 114.42L24.172 115.72Z" fill="white"/>
<path d="M30.2206 115.3L31.7506 119.93L30.7806 120.25L30.2106 118.52L25.5206 120.07L25.1406 118.91L29.8306 117.36L29.2606 115.63L30.2206 115.3Z" fill="white"/>
<path d="M32.1128 120.79L33.7228 124.46L32.7828 124.87L31.6728 122.34L30.3428 122.92L31.3728 125.27L30.4328 125.68L29.4028 123.33L28.0728 123.91L29.1828 126.45L28.2428 126.86L26.6328 123.19L32.1128 120.79Z" fill="white"/>
<path d="M34.6336 128.3C34.1736 127.5 33.2536 127.3 32.1636 127.92C31.0636 128.54 30.7436 129.43 31.2136 130.25C31.6336 130.99 32.3036 131.19 32.9636 130.83L32.3236 129.71L33.1336 129.25L34.3636 131.41L33.7236 131.78C32.3636 132.55 31.0036 132.09 30.2636 130.78C29.4336 129.33 29.8936 127.76 31.5336 126.83C33.2136 125.87 34.8036 126.36 35.5836 127.73C36.2436 128.9 36.0436 130.21 35.1036 130.93L34.4836 129.84C34.8736 129.43 34.9536 128.87 34.6336 128.3Z" fill="white"/>
<path d="M37.373 130.9L38.743 132.79C39.543 133.89 39.373 134.97 38.423 135.66C37.763 136.14 37.063 136.18 36.433 135.8L35.303 138.19L34.503 137.08L35.543 134.92L34.983 134.15L33.273 135.39L32.543 134.39L37.373 130.9ZM36.313 134.27C36.743 134.86 37.193 134.97 37.673 134.62C38.163 134.27 38.213 133.79 37.783 133.19L37.273 132.48L35.793 133.55L36.313 134.27Z" fill="white"/>
<path d="M35.9727 139.05L41.7627 136.56L42.8327 137.73L39.8227 143.26L38.9327 142.28L39.6527 141.03L38.2027 139.44L36.8827 140.03L35.9727 139.05ZM40.1527 140.15L41.3327 138.06L41.3027 138.03L39.1227 139.02L40.1527 140.15Z" fill="white"/>
<path d="M44.1434 139.14L47.7734 142.4L47.0934 143.16L45.7334 141.94L42.4334 145.61L41.5234 144.79L44.8234 141.12L43.4634 139.9L44.1434 139.14Z" fill="white"/>
<path d="M48.5022 142.96L51.7322 145.32L51.1322 146.14L48.9022 144.51L48.0422 145.68L50.1022 147.19L49.5022 148.01L47.4422 146.5L46.5822 147.67L48.8222 149.31L48.2222 150.13L44.9922 147.76L48.5022 142.96Z" fill="white"/>
<path d="M49.6211 151.08L52.6411 145.94L54.4711 147.02C56.0211 147.93 56.4011 149.45 55.4611 151.05C54.5111 152.66 53.0011 153.07 51.4311 152.15L49.6211 151.08ZM51.9311 151.2C52.9111 151.78 53.7211 151.56 54.4011 150.41C55.0711 149.27 54.8611 148.46 53.8811 147.89L53.1711 147.47L51.2311 150.78L51.9311 151.2Z" fill="white"/>
<path d="M59.8916 149.9L62.0816 150.81C63.3016 151.32 63.6616 152.16 63.3116 152.98C63.0416 153.63 62.4616 153.85 61.8316 153.75L61.8116 153.8C62.4216 154.09 62.8016 154.83 62.4616 155.64C62.1016 156.51 61.1716 156.89 59.9316 156.37L57.6016 155.4L59.8916 149.9ZM61.3216 155.05C61.5116 154.59 61.3016 154.11 60.7416 153.88L59.7416 153.47L59.1316 154.94L60.0916 155.34C60.7516 155.62 61.1516 155.46 61.3216 155.05ZM62.0816 152.69C62.2416 152.3 62.0716 151.9 61.5516 151.68L60.6516 151.3L60.0816 152.68L60.9616 153.05C61.4316 153.25 61.9016 153.13 62.0816 152.69Z" fill="white"/>
<path d="M69.7127 153.45L68.5627 157.14C68.1727 158.39 66.9727 158.92 65.5627 158.48C64.1527 158.04 63.4727 156.92 63.8627 155.67L65.0127 151.98L66.1927 152.35L65.0727 155.95C64.8727 156.6 65.1827 157.23 65.8927 157.45C66.6027 157.67 67.2127 157.34 67.4127 156.68L68.5327 153.08L69.7127 153.45Z" fill="white"/>
<path d="M72.8025 155.15C72.1925 155.02 71.7925 155.22 71.7025 155.61C71.6025 156.03 72.0025 156.32 72.4725 156.54L72.9625 156.78C73.9125 157.22 74.5425 157.9 74.3325 158.87C74.0925 159.94 73.1125 160.43 71.7025 160.12C70.2925 159.81 69.5425 158.96 69.7825 157.71L70.9525 157.97C70.8625 158.57 71.2625 158.97 71.9025 159.11C72.5325 159.25 73.0125 159.04 73.1125 158.61C73.2025 158.22 72.8825 157.95 72.2825 157.65L71.6825 157.36C70.7525 156.9 70.2625 156.28 70.4525 155.43C70.6825 154.37 71.7725 153.87 73.0425 154.15C74.3325 154.43 75.0225 155.34 74.8125 156.37L73.6525 156.11C73.7025 155.63 73.3925 155.28 72.8025 155.15Z" fill="white"/>
<path d="M78.9114 161.26L77.6914 161.1L78.4714 155.19L79.6914 155.35L78.9114 161.26Z" fill="white"/>
<path d="M85.4209 161.85L84.3509 161.77L82.0309 157.8H81.9809L81.6909 161.57L80.4609 161.48L80.9109 155.54L81.9909 155.62L84.3009 159.59H84.3609L84.6409 155.82L85.8609 155.91L85.4209 161.85Z" fill="white"/>
<path d="M87.0934 155.93L91.0234 155.98L91.0034 157L88.3134 156.97L88.2934 158.42L90.7334 158.45L90.7234 159.47L88.2834 159.44L88.2534 161.91L87.0234 161.89L87.0934 155.93Z" fill="white"/>
<path d="M95.0321 161.84C93.4421 161.93 92.1821 160.88 92.0621 158.95C91.9521 157.01 93.0821 155.82 94.6721 155.73C96.2421 155.64 97.5121 156.68 97.6321 158.62C97.7421 160.56 96.6021 161.75 95.0321 161.84ZM94.7321 156.82C93.8121 156.87 93.2421 157.6 93.3221 158.87C93.4021 160.14 94.0421 160.8 94.9621 160.74C95.8821 160.69 96.4421 159.96 96.3621 158.69C96.2921 157.42 95.6521 156.77 94.7321 156.82Z" fill="white"/>
<path d="M98.5117 155.53L100.822 155.21C102.162 155.02 103.042 155.68 103.202 156.84C103.312 157.65 103.022 158.28 102.392 158.66L103.962 160.78L102.612 160.97L101.202 159.03L100.262 159.16L100.552 161.25L99.3317 161.42L98.5117 155.53ZM100.992 158.05C101.722 157.95 102.022 157.6 101.942 157.01C101.862 156.42 101.462 156.14 100.742 156.24L99.8817 156.36L100.132 158.17L100.992 158.05Z" fill="white"/>
<path d="M105.453 154.42L107.983 157.98L108.043 157.97L108.733 153.66L110.223 153.31L111.573 159.11L110.403 159.38L109.513 155.58L109.463 155.59L108.833 159.72L108.033 159.91L105.633 156.47L105.583 156.48L106.473 160.3L105.303 160.57L103.953 154.77L105.453 154.42Z" fill="white"/>
<path d="M112.961 158.69L112.941 152.38L114.441 151.86L118.351 156.8L117.101 157.24L116.231 156.09L114.201 156.8L114.231 158.25L112.961 158.69ZM115.611 155.29L114.151 153.39L114.111 153.4L114.161 155.8L115.611 155.29Z" fill="white"/>
<path d="M116.262 151.21L120.712 149.2L121.132 150.13L119.462 150.88L121.492 155.38L120.372 155.88L118.342 151.38L116.672 152.13L116.262 151.21Z" fill="white"/>
<path d="M125.461 153.39L124.371 153.97L121.551 148.72L122.641 148.13L125.461 153.39Z" fill="white"/>
<path d="M129.231 151.23C127.901 152.09 126.281 151.8 125.231 150.17C124.181 148.54 124.581 146.95 125.911 146.09C127.231 145.24 128.851 145.52 129.911 147.15C130.961 148.78 130.551 150.38 129.231 151.23ZM126.501 147.01C125.731 147.51 125.591 148.42 126.281 149.49C126.971 150.56 127.861 150.81 128.631 150.31C129.401 149.81 129.531 148.9 128.841 147.83C128.161 146.76 127.281 146.51 126.501 147.01Z" fill="white"/>
<path d="M136.722 145.47L135.902 146.15L131.472 144.9L131.432 144.93L133.842 147.85L132.892 148.64L129.102 144.05L129.942 143.36L134.362 144.62L134.402 144.58L131.992 141.66L132.942 140.88L136.722 145.47Z" fill="white"/>
<path d="M137.501 137.54C137.081 138.01 137.071 138.45 137.351 138.72C137.661 139.01 138.111 138.81 138.541 138.51L139.001 138.2C139.851 137.6 140.751 137.37 141.491 138.04C142.301 138.77 142.251 139.87 141.281 140.95C140.321 142.02 139.211 142.26 138.231 141.43L139.031 140.54C139.501 140.91 140.051 140.76 140.491 140.27C140.921 139.79 140.981 139.27 140.651 138.97C140.351 138.7 139.961 138.85 139.401 139.22L138.851 139.6C138.001 140.18 137.211 140.31 136.561 139.72C135.751 138.99 135.861 137.81 136.731 136.84C137.611 135.86 138.741 135.7 139.531 136.39L138.741 137.27C138.371 137 137.911 137.1 137.501 137.54Z" fill="white"/>
<path d="M138.922 134.44L141.292 131.22L142.112 131.82L140.472 134.05L141.642 134.91L143.152 132.85L143.972 133.45L142.462 135.51L143.632 136.37L145.272 134.14L146.092 134.74L143.722 137.97L138.922 134.44Z" fill="white"/>
<path d="M141.902 130.28L143.102 128.27C143.802 127.1 144.852 126.83 145.862 127.44C146.562 127.86 146.882 128.48 146.782 129.22L149.422 129.32L148.722 130.49L146.322 130.38L145.832 131.19L147.652 132.28L147.022 133.34L141.902 130.28ZM145.432 129.93C145.812 129.3 145.732 128.84 145.222 128.54C144.702 128.23 144.242 128.37 143.862 129L143.412 129.75L144.982 130.69L145.432 129.93Z" fill="white"/>
<path d="M149.781 125.4L149.801 125.35L146.321 122.09L146.901 120.86L151.411 125.27L150.731 126.71L144.461 126.03L145.051 124.78L149.781 125.4Z" fill="white"/>
<path d="M153.174 121.03L152.724 122.18L147.164 120.02L147.614 118.87L153.174 121.03Z" fill="white"/>
<path d="M149.851 115.49C149.571 116.38 150.071 117.17 151.271 117.55C152.501 117.93 153.331 117.55 153.601 116.68C153.801 116.03 153.591 115.44 153.021 115.13L153.401 113.94C154.411 114.4 155.091 115.58 154.641 117.03C154.161 118.55 152.741 119.34 150.891 118.76C149.041 118.18 148.331 116.7 148.801 115.2C149.211 113.89 150.271 113.13 151.631 113.38L151.261 114.57C150.591 114.46 150.051 114.83 149.851 115.49Z" fill="white"/>
<path d="M149.871 111.73L150.741 107.82L151.741 108.04L151.141 110.74L152.551 111.06L153.111 108.56L154.111 108.78L153.551 111.28L154.961 111.6L155.561 108.89L156.561 109.11L155.691 113.02L149.871 111.73Z" fill="white"/>
<path d="M234.272 44.9C227.572 44.9 224.592 47.45 224.492 51.07C224.382 55 228.002 57.24 235.122 58.73L241.502 60.22C258.092 63.73 265.422 71.81 265.532 83.61C265.422 98.71 253.832 107.21 234.382 107.21C214.502 107.21 201.632 98.49 201.422 79.57H220.772C221.092 86.69 226.092 90.52 234.062 90.52C240.972 90.52 244.692 87.65 244.802 83.61C244.692 79.89 241.612 77.76 233.002 75.85L225.242 74.15C211.742 71.17 203.442 64.47 203.442 52.57C203.332 38 216.202 28.22 234.272 28.22C252.772 28.22 264.362 38.11 264.472 53.1H245.012C244.592 47.88 241.182 44.9 234.272 44.9Z" fill="#333333"/>
<path d="M271.594 29.28H337.944V45.65H314.764V106.25H294.774V45.65H271.594V29.28Z" fill="#333333"/>
<path d="M333.523 106.25L359.143 29.27H386.683L412.203 106.25H390.403L385.833 91.15H360.003L355.433 106.25H333.523ZM381.163 75.85L373.193 50.01H372.553L364.683 75.85H381.163Z" fill="#333333"/>
<path d="M419.863 29.28H452.613C469.833 29.28 481.103 39.06 481.103 55.33C481.103 65.96 476.213 73.51 467.923 77.45L483.663 106.26H461.653L448.043 80.64H440.073V106.26H419.873V29.28H419.863ZM447.933 64.79C455.593 64.79 459.943 62.03 459.943 55.33C459.943 48.53 455.583 45.44 447.933 45.44H440.063V64.79H447.933Z" fill="#333333"/>
<path d="M490.242 29.28H523.202C540.742 29.28 549.992 36.83 549.992 48.63C549.992 57.14 543.932 63.62 535.212 65.43V66.17C544.892 66.49 552.972 73.61 552.972 84.56C552.972 97.11 542.762 106.25 525.962 106.25H490.242V29.28ZM529.162 52.88C529.162 47.99 525.332 45.22 519.802 45.22H510.442V60.53H519.482C525.122 60.53 529.162 57.77 529.162 52.88ZM531.602 82.01C531.602 76.38 527.562 73.19 521.072 73.19H510.442V89.99H520.752C527.992 89.99 531.602 87.22 531.602 82.01Z" fill="#333333"/>
<path d="M626.76 29.28V78.72C626.76 96.16 613.47 107.22 593.69 107.22C573.91 107.22 560.73 96.16 560.73 78.72V29.28H580.93V76.91C580.93 84.35 586.25 89.67 593.69 89.67C601.24 89.67 606.56 84.35 606.56 76.91V29.28H626.76Z" fill="#333333"/>
<path d="M667.912 44.9C661.212 44.9 658.233 47.45 658.133 51.07C658.023 55 661.643 57.24 668.763 58.73L675.143 60.22C691.733 63.73 699.062 71.81 699.172 83.61C699.062 98.71 687.473 107.21 668.023 107.21C648.143 107.21 635.272 98.49 635.062 79.57H654.412C654.732 86.69 659.733 90.52 667.703 90.52C674.613 90.52 678.333 87.65 678.443 83.61C678.333 79.89 675.253 77.76 666.643 75.85L658.883 74.15C645.383 71.17 637.083 64.47 637.083 52.57C636.973 38 649.842 28.22 667.912 28.22C686.412 28.22 698.002 38.11 698.112 53.1H678.653C678.223 47.88 674.822 44.9 667.912 44.9Z" fill="#333333"/>
<path d="M203.331 151.46H200.031V133.1H203.331V151.46Z" fill="#333333"/>
<path d="M221.852 151.46H218.912L210.212 138.91H210.062V151.46H206.762V133.1H209.752L218.402 145.65H218.582V133.1H221.852V151.46Z" fill="#333333"/>
<path d="M224.432 133.1H239.062V135.86H233.402V151.46H230.102V135.86H224.422V133.1H224.432Z" fill="#333333"/>
<path d="M241.662 133.1H253.602V135.86H244.952V140.88H252.962V143.64H244.952V148.66H253.652V151.45H241.652V133.1H241.662Z" fill="#333333"/>
<path d="M264.731 135.81C261.761 135.81 259.631 138.12 259.631 142.25C259.631 146.43 261.731 148.74 264.801 148.74C267.561 148.74 269.341 147.07 269.391 144.45H265.131V141.84H272.591V144.05C272.591 148.77 269.341 151.71 264.801 151.71C259.731 151.71 256.301 148.11 256.301 142.28C256.301 136.4 259.881 132.85 264.691 132.85C268.751 132.85 271.871 135.36 272.421 138.96H269.051C268.491 137.01 266.971 135.81 264.731 135.81Z" fill="#333333"/>
<path d="M275.59 133.1H282.49C286.7 133.1 288.96 135.46 288.96 138.96C288.96 141.46 287.82 143.31 285.66 144.18L289.62 151.46H285.94L282.34 144.74H278.89V151.46H275.59V133.1ZM281.98 141.98C284.47 141.98 285.58 140.91 285.58 138.96C285.58 137.01 284.46 135.87 281.98 135.87H278.89V141.98H281.98Z" fill="#333333"/>
<path d="M290.609 151.46L297.079 133.1H301.139L307.629 151.46H304.109L302.589 146.92H295.669L294.149 151.46H290.609ZM301.689 144.26L299.179 136.85H299.029L296.539 144.26H301.689Z" fill="#333333"/>
<path d="M306.772 133.1H321.402V135.86H315.742V151.46H312.442V135.86H306.762V133.1H306.772Z" fill="#333333"/>
<path d="M324.002 133.1H335.942V135.86H327.292V140.88H335.302V143.64H327.292V148.66H335.992V151.45H323.992V133.1H324.002Z" fill="#333333"/>
<path d="M339.109 151.46V133.1H345.449C350.929 133.1 354.249 136.55 354.249 142.25C354.249 147.98 350.929 151.46 345.349 151.46H339.109ZM345.169 148.6C348.999 148.6 350.949 146.49 350.949 142.26C350.949 138.05 348.999 135.97 345.269 135.97H342.399V148.6H345.169Z" fill="#333333"/>
<path d="M363.332 133.1H370.352C374.332 133.1 376.312 135.13 376.312 137.87C376.312 140.1 374.892 141.34 373.092 141.78V141.96C375.042 142.06 377.022 143.68 377.022 146.47C377.022 149.34 374.972 151.47 370.762 151.47H363.332V133.1ZM373.022 138.27C373.022 136.85 372.012 135.84 370.032 135.84H366.632V140.91H369.952C371.702 140.91 373.022 139.9 373.022 138.27ZM373.682 146.21C373.682 144.56 372.392 143.29 370.332 143.29H366.632V148.69H370.262C372.672 148.7 373.682 147.66 373.682 146.21Z" fill="#333333"/>
<path d="M394.631 133.1V145.1C394.631 149.03 391.641 151.74 387.171 151.74C382.681 151.74 379.711 149.03 379.711 145.1V133.1H383.011V144.82C383.011 147.13 384.631 148.8 387.171 148.8C389.711 148.8 391.301 147.13 391.301 144.82V133.1H394.631Z" fill="#333333"/>
<path d="M404.549 135.66C402.469 135.66 401.199 136.67 401.199 138.04C401.199 139.59 402.819 140.22 404.339 140.58L406.059 141.04C408.799 141.67 411.439 143.12 411.439 146.31C411.439 149.53 408.899 151.74 404.489 151.74C400.199 151.74 397.519 149.69 397.359 146.06H400.609C400.759 147.99 402.389 148.93 404.459 148.93C406.639 148.93 408.139 147.86 408.139 146.29C408.139 144.84 406.799 144.24 404.819 143.73L402.739 143.2C399.719 142.41 397.849 140.89 397.849 138.25C397.849 135 400.739 132.85 404.599 132.85C408.509 132.85 411.139 135.06 411.189 138.15H408.019C407.869 136.57 406.529 135.66 404.549 135.66Z" fill="#333333"/>
<path d="M423.652 151.46H420.352V133.1H423.652V151.46Z" fill="#333333"/>
<path d="M442.16 151.46H439.22L430.52 138.91H430.37V151.46H427.07V133.1H430.06L438.71 145.65H438.89V133.1H442.16V151.46Z" fill="#333333"/>
<path d="M445.562 133.1H457.332V135.86H448.862V140.88H456.522V143.64H448.862V151.45H445.562V133.1Z" fill="#333333"/>
<path d="M468.08 151.71C463.26 151.71 459.66 148.18 459.66 142.28C459.66 136.35 463.26 132.85 468.08 132.85C472.9 132.85 476.5 136.35 476.5 142.28C476.5 148.21 472.9 151.71 468.08 151.71ZM468.08 135.81C465.09 135.81 462.98 138.09 462.98 142.28C462.98 146.47 465.08 148.75 468.08 148.75C471.07 148.75 473.18 146.47 473.18 142.28C473.18 138.09 471.07 135.81 468.08 135.81Z" fill="#333333"/>
<path d="M479.453 133.1H486.353C490.563 133.1 492.823 135.46 492.823 138.96C492.823 141.46 491.683 143.31 489.523 144.18L493.483 151.46H489.803L486.203 144.74H482.753V151.46H479.453V133.1ZM485.843 141.98C488.333 141.98 489.443 140.91 489.443 138.96C489.443 137.01 488.323 135.87 485.843 135.87H482.753V141.98H485.843Z" fill="#333333"/>
<path d="M499.711 133.1L505.161 146.44H505.391L510.841 133.1H514.901V151.46H511.731V138.83H511.551L506.451 151.41H504.091L498.991 138.78H498.841V151.46H495.641V133.1H499.711Z" fill="#333333"/>
<path d="M517.109 151.46L523.579 133.1H527.639L534.129 151.46H530.599L529.079 146.92H522.159L520.639 151.46H517.109ZM528.189 144.26L525.679 136.85H525.529L523.039 144.26H528.189Z" fill="#333333"/>
<path d="M533.28 133.1H547.909V135.86H542.25V151.46H538.95V135.86H533.27V133.1H533.28Z" fill="#333333"/>
<path d="M553.8 151.46H550.5V133.1H553.8V151.46Z" fill="#333333"/>
<path d="M565.182 151.71C560.362 151.71 556.762 148.18 556.762 142.28C556.762 136.35 560.362 132.85 565.182 132.85C570.002 132.85 573.602 136.35 573.602 142.28C573.602 148.21 570.002 151.71 565.182 151.71ZM565.182 135.81C562.192 135.81 560.082 138.09 560.082 142.28C560.082 146.47 562.182 148.75 565.182 148.75C568.172 148.75 570.282 146.47 570.282 142.28C570.282 138.09 568.182 135.81 565.182 135.81Z" fill="#333333"/>
<path d="M591.641 151.46H588.701L580.001 138.91H579.851V151.46H576.551V133.1H579.541L588.191 145.65H588.371V133.1H591.641V151.46Z" fill="#333333"/>
<path d="M607.721 135.66C605.641 135.66 604.371 136.67 604.371 138.04C604.371 139.59 605.991 140.22 607.511 140.58L609.231 141.04C611.971 141.67 614.611 143.12 614.611 146.31C614.611 149.53 612.071 151.74 607.661 151.74C603.371 151.74 600.691 149.69 600.531 146.06H603.781C603.931 147.99 605.561 148.93 607.631 148.93C609.811 148.93 611.311 147.86 611.311 146.29C611.311 144.84 609.971 144.24 607.991 143.73L605.911 143.2C602.891 142.41 601.021 140.89 601.021 138.25C601.021 135 603.911 132.85 607.771 132.85C611.681 132.85 614.311 135.06 614.361 138.15H611.191C611.041 136.57 609.701 135.66 607.721 135.66Z" fill="#333333"/>
<path d="M617.362 133.1H629.302V135.86H620.652V140.88H628.662V143.64H620.652V148.66H629.352V151.45H617.352V133.1H617.362Z" fill="#333333"/>
<path d="M632.473 133.1H639.373C643.583 133.1 645.843 135.46 645.843 138.96C645.843 141.46 644.703 143.31 642.543 144.18L646.503 151.46H642.823L639.223 144.74H635.773V151.46H632.473V133.1ZM638.863 141.98C641.353 141.98 642.463 140.91 642.463 138.96C642.463 137.01 641.343 135.87 638.863 135.87H635.773V141.98H638.863Z" fill="#333333"/>
<path d="M655.4 147.58H655.6L660.39 133.1H664.02L657.53 151.46H653.47L647 133.1H650.63L655.4 147.58Z" fill="#333333"/>
<path d="M669.503 151.46H666.203V133.1H669.503V151.46Z" fill="#333333"/>
<path d="M680.913 135.81C677.893 135.81 675.793 138.12 675.793 142.28C675.793 146.49 677.923 148.75 680.913 148.75C683.093 148.75 684.873 147.53 685.303 145.38H688.623C688.113 148.9 685.223 151.72 680.863 151.72C676.023 151.72 672.473 148.19 672.473 142.29C672.473 136.36 676.073 132.86 680.863 132.86C684.923 132.86 688.063 135.22 688.623 139.3H685.303C684.923 137.08 683.153 135.81 680.913 135.81Z" fill="#333333"/>
<path d="M691.471 133.1H703.411V135.86H694.761V140.88H702.771V143.64H694.761V148.66H703.461V151.45H691.461V133.1H691.471Z" fill="#333333"/>
</g>
<defs>
<clipPath id="clip0_105_61">
<rect width="703.46" height="180.1" fill="white"/>
</clipPath>
</defs>
</svg>
