<svg width="180" height="181" viewBox="0 0 180 181" fill="none" xmlns="http://www.w3.org/2000/svg">
<path d="M89.8806 -1.30806e-05C38.9806 -0.230013 0.150572 40.75 0.000572128 89.4C-0.0794279 113.44 8.23057 134.49 24.7606 151.95C41.3206 169.43 61.8406 179.02 85.9706 180.01C111.751 181.07 134.031 172.42 152.431 154.27C169.851 137.08 178.931 116.04 179.451 91.67C180.581 39.66 139.221 -0.0600131 89.8806 -1.30806e-05Z" fill="#036635"/>
<path d="M176.299 89.48C176.309 100.25 174.359 110.67 170.589 120.72C167.499 128.97 163.129 136.53 157.709 143.5C154.489 147.65 150.889 151.43 147.039 154.94C140.309 161.07 132.719 165.99 124.389 169.69C118.409 172.35 112.219 174.35 105.749 175.4C102.839 175.87 99.9094 176.23 96.9794 176.5C94.2394 176.75 91.4694 176.99 88.7294 176.93C81.2694 176.78 73.9094 175.84 66.7194 173.79C60.4794 172.01 54.4894 169.59 48.8094 166.48C43.6394 163.66 38.7294 160.43 34.3394 156.48C31.5994 154.02 28.8494 151.55 26.3194 148.88C22.4994 144.85 19.2194 140.37 16.2994 135.64C11.8194 128.36 8.38935 120.61 6.22935 112.35C5.29935 108.77 4.73935 105.09 4.12935 101.44C3.34935 96.83 3.06935 92.17 3.26935 87.51C3.42935 83.79 3.87935 80.08 4.32935 76.39C5.17935 69.39 7.22935 62.68 9.95935 56.22C12.4494 50.35 15.5294 44.78 19.1994 39.54C22.8194 34.37 26.9794 29.67 31.6094 25.43C38.0994 19.5 45.3994 14.74 53.3994 11.08C59.2894 8.38999 65.3994 6.34999 71.7594 5.11999C74.8594 4.51999 78.0094 4.01999 81.1494 3.79999C85.5194 3.48999 89.9094 3.18999 94.2794 3.37999C103.449 3.78999 112.369 5.65999 120.949 8.95999C128.829 11.99 136.209 15.96 142.789 21.28C145.749 23.67 148.709 26.11 151.389 28.81C158.529 36 164.189 44.25 168.429 53.46C171.589 60.32 173.759 67.5 175.039 74.92C175.529 77.76 175.709 80.65 175.959 83.52C176.139 85.51 176.199 87.5 176.299 89.48ZM173.489 89.81C173.289 86.88 173.179 83.94 172.859 81.03C172.509 77.89 172.159 74.72 171.479 71.64C169.529 62.76 166.239 54.37 161.559 46.56C158.319 41.15 154.529 36.17 150.099 31.66C146.339 27.83 142.289 24.35 137.909 21.24C132.729 17.56 127.179 14.57 121.299 12.22C115.799 10.02 110.149 8.32999 104.269 7.52999C100.439 6.99999 96.5994 6.50999 92.7494 6.25999C90.1494 6.08999 87.5194 6.27999 84.9094 6.45999C81.7394 6.66999 78.5493 6.83999 75.4193 7.37999C68.4293 8.57999 61.6694 10.56 55.1594 13.48C46.8294 17.21 39.3693 22.22 32.6693 28.36C28.6593 32.03 25.1594 36.19 21.9694 40.59C17.8594 46.27 14.5194 52.4 11.9394 58.91C9.86935 64.14 8.19935 69.51 7.43935 75.12C6.92935 78.84 6.34935 82.57 6.15935 86.31C5.89935 91.37 6.25935 96.43 6.95935 101.46C7.58935 105.9 8.53935 110.24 9.81935 114.53C11.6494 120.68 14.2694 126.51 17.4694 132.05C20.9294 138.05 25.0094 143.63 29.9194 148.54C31.8194 150.44 33.8194 152.23 35.8294 154.01C40.2294 157.93 45.1194 161.17 50.2694 163.99C55.8494 167.04 61.7094 169.47 67.8594 171.16C74.7294 173.05 81.7394 173.97 88.8194 174.03C92.9894 174.06 97.1794 173.71 101.319 173.15C105.229 172.62 109.109 171.72 112.939 170.75C119.139 169.18 124.899 166.5 130.469 163.38C136.059 160.25 141.209 156.5 145.889 152.15C149.579 148.72 152.959 145 156.029 140.98C160.499 135.12 164.159 128.83 166.989 122.03C171.259 111.72 173.339 100.98 173.489 89.81Z" fill="white"/>
<path d="M89.7108 122.86C80.6908 122.86 71.6708 122.88 62.6608 122.84C61.3908 122.83 60.0808 122.72 58.8708 122.37C55.8008 121.49 54.3308 119.61 54.2708 116.35C54.1408 107.85 54.1508 99.35 54.2608 90.85C54.3008 87.94 54.8208 85.03 55.0808 82.12C55.2708 80.04 55.3508 77.95 55.5608 75.88C55.9708 71.89 56.0508 67.82 56.9808 63.95C58.2708 58.55 62.1308 55.2 67.4908 53.95C70.9508 53.14 74.5108 52.59 78.0608 52.4C84.5008 52.05 90.9608 51.81 97.3908 51.97C102.801 52.11 108.261 52.41 113.441 54.32C119.051 56.38 122.311 60.35 122.961 66.33C123.241 68.87 123.391 71.43 123.641 73.98C123.991 77.65 124.401 81.32 124.731 85C124.931 87.22 125.141 89.46 125.171 91.69C125.291 99.18 125.371 106.68 125.381 114.17C125.381 115.57 125.071 116.99 124.741 118.37C124.081 121.13 121.621 122.56 119.051 122.62C110.891 122.78 102.731 122.8 94.5808 122.87C92.9608 122.87 91.3408 122.86 89.7108 122.86ZM89.3908 73.35C89.5308 73.33 89.6708 73.32 89.8108 73.3C90.0708 73.63 90.5308 73.94 90.5708 74.3C90.7908 76.27 90.9608 78.24 91.0308 80.22C91.1508 83.68 91.2008 87.15 91.2608 90.62C91.2908 91.95 91.7908 92.48 93.1108 92.48C100.721 92.48 108.331 92.53 115.951 92.46C119.121 92.43 121.171 89.9 121.161 86.99C121.161 84.88 120.761 82.78 120.521 80.68C120.161 77.56 119.771 74.45 119.431 71.34C119.061 67.89 116.441 65.42 113.131 65.42C97.5008 65.44 81.8708 65.43 66.2408 65.43C63.8108 65.43 62.0908 66.66 60.9108 68.68C60.0508 70.14 60.1008 71.81 59.9508 73.45C59.7308 75.99 59.3908 78.52 59.1008 81.06C58.9208 82.66 58.8608 84.28 58.5308 85.84C57.8208 89.25 60.3408 92.48 63.8208 92.49C69.6208 92.49 75.4208 92.49 81.2208 92.49C82.9908 92.49 84.7708 92.49 86.5408 92.49C87.2908 92.49 87.9608 92.27 88.1208 91.44C88.2608 90.72 88.3308 89.98 88.3608 89.25C88.5208 84.54 88.6508 79.83 88.8408 75.12C88.8708 74.51 89.2008 73.93 89.3908 73.35ZM83.6808 103.42C83.6808 103.4 83.6808 103.37 83.6808 103.35C82.6808 103.35 81.6808 103.32 80.6908 103.37C80.4408 103.38 80.0908 103.56 80.0008 103.76C79.9108 103.96 80.0308 104.32 80.1808 104.54C80.3808 104.84 80.6708 105.1 80.9608 105.32C82.2608 106.31 83.5908 107.27 84.8708 108.29C85.0708 108.45 85.2008 108.9 85.1308 109.16C84.6208 111.05 84.0208 112.91 83.5108 114.8C83.4308 115.11 83.5308 115.69 83.7408 115.81C83.9908 115.96 84.5308 115.86 84.8008 115.66C86.1808 114.64 87.5908 113.64 88.8508 112.48C89.6608 111.73 90.1408 111.96 90.8308 112.54C92.1208 113.61 93.4508 114.63 94.8108 115.61C95.1008 115.82 95.7808 115.95 95.9308 115.79C96.1908 115.51 96.3408 114.93 96.2308 114.56C95.7408 112.86 95.1908 111.16 94.5508 109.51C94.2608 108.76 94.4408 108.42 95.0608 107.98C96.4908 106.98 97.8608 105.89 99.2108 104.79C99.4708 104.58 99.6908 104.07 99.6208 103.78C99.5608 103.56 99.0008 103.36 98.6608 103.35C96.9208 103.31 95.1908 103.32 93.4508 103.37C92.7708 103.39 92.5308 103.13 92.3408 102.5C91.8208 100.84 91.2208 99.2 90.5808 97.59C90.4408 97.23 89.9608 97 89.6408 96.71C89.3708 97.01 88.9908 97.28 88.8608 97.63C88.5508 98.44 88.3808 99.3 88.1208 100.14C87.7908 101.17 87.7208 102.6 87.0008 103.1C86.2008 103.64 84.8108 103.34 83.6808 103.42ZM89.7808 56.33C86.4208 56.33 83.0608 56.33 79.6908 56.33C77.9308 56.33 76.6608 57.46 76.6208 59.06C76.5808 60.84 77.7808 62.09 79.6208 62.09C86.4208 62.11 93.2108 62.1 100.011 62.09C101.811 62.09 103.021 60.88 103.011 59.18C103.001 57.45 101.811 56.33 99.9708 56.33C96.5808 56.33 93.1808 56.33 89.7808 56.33ZM64.3308 101.57C61.1408 101.39 58.4708 104.11 58.4808 107.35C58.4808 111.04 61.7308 113.14 64.2608 113.14C67.4008 113.13 70.1508 110.73 70.1608 107.36C70.1708 103.98 67.4108 101.4 64.3308 101.57ZM109.451 107.23C109.191 110.33 112.091 113.14 115.081 113.09C118.241 113.04 120.771 110.73 120.961 107.26C121.121 104.23 118.221 101.29 115.151 101.39C111.771 101.5 109.321 104.17 109.451 107.23Z" fill="white"/>
<path d="M57.5484 129.28C34.9884 110.5 33.1384 77.3 51.3084 56.44C71.5884 33.17 106.458 33.85 126.058 54.22C147.298 76.29 144.858 109.78 122.088 129.29C122.088 127.86 122.058 126.55 122.108 125.25C122.118 124.98 122.378 124.66 122.598 124.45C125.678 121.49 128.228 118.11 130.418 114.46C133.458 109.39 135.578 103.97 136.468 98.12C136.908 95.23 137.348 92.31 137.318 89.4C137.248 83.05 135.918 76.92 133.368 71.06C130.558 64.62 126.508 59.09 121.338 54.39C115.298 48.91 108.238 45.27 100.268 43.47C95.9584 42.5 91.5684 42.09 87.1684 42.37C79.2184 42.87 71.7684 45.07 64.9184 49.25C60.8184 51.75 57.1984 54.79 54.0584 58.39C49.1384 64.04 45.5884 70.47 43.8484 77.77C43.1384 80.76 42.7784 83.85 42.4984 86.92C41.8084 94.33 43.2684 101.43 46.0584 108.26C48.5384 114.33 52.1084 119.71 56.8484 124.29C57.2384 124.66 57.4684 125.33 57.5284 125.89C57.6284 126.96 57.5484 128.04 57.5484 129.28Z" fill="white"/>
<path d="M104.488 14.35C106.288 14.82 108.078 15.25 109.838 15.77C111.918 16.38 113.988 17.03 116.038 17.76C118.348 18.59 119.848 20.61 119.868 22.72C119.888 24.92 118.588 26.64 116.458 27.26C116.088 27.37 115.718 27.46 115.308 27.57C116.718 28.77 117.918 29.99 117.878 31.98C117.828 34.37 116.308 36.26 113.958 36.83C112.178 37.27 110.518 36.91 108.818 36.39C105.668 35.43 102.488 34.56 99.328 33.65C99.158 33.6 99.018 33.46 98.918 33.4C99.838 30.22 100.758 27.06 101.688 23.9C102.608 20.75 103.538 17.6 104.488 14.35ZM105.628 31.04C106.988 31.42 108.278 31.91 109.618 32.13C111.368 32.42 111.868 31.77 112.208 30.63C112.458 29.8 111.818 29 110.498 28.47C109.488 28.07 108.448 27.71 107.408 27.43C107.188 27.37 106.698 27.67 106.608 27.91C106.238 28.84 105.988 29.83 105.628 31.04ZM109.028 19.77C108.628 20.97 108.268 22.06 107.868 23.28C108.998 23.59 110.098 23.92 111.208 24.19C112.518 24.5 113.378 24.09 113.748 23.04C114.048 22.19 113.548 21.36 112.278 20.86C111.258 20.44 110.178 20.15 109.028 19.77Z" fill="white"/>
<path d="M91.4497 25.86C93.0397 28.3 94.5897 30.69 96.2897 33.31C94.7797 33.21 93.4797 32.97 92.2097 33.09C90.4497 33.25 89.2897 32.76 88.4697 31.1C87.8597 29.88 86.7997 28.89 86.0897 27.71C85.6297 26.93 85.0997 26.72 84.2797 26.89C84.2797 28.97 84.2797 31.05 84.2797 33.25C82.4897 33.43 80.6497 33.61 78.5797 33.81C78.1897 27.18 77.8097 20.65 77.4297 14.11C78.6497 13.98 79.7297 13.82 80.8197 13.77C83.4897 13.66 86.1797 13.39 88.8397 13.58C93.6397 13.94 96.3897 17.41 95.2497 22.05C94.8897 23.52 93.9397 24.63 92.5397 25.3C92.1697 25.47 91.8297 25.66 91.4497 25.86ZM83.8997 23.15C85.2797 22.97 86.5197 22.9 87.7097 22.63C88.7397 22.4 89.5397 21.2 89.4797 20.27C89.4097 19.11 88.5797 18.1 87.3697 17.98C86.1997 17.86 84.9997 17.95 83.6697 17.95C83.7497 19.68 83.8197 21.29 83.8997 23.15Z" fill="white"/>
<path d="M76.5783 34.1C74.4983 34.86 72.4683 35.61 70.4483 36.35C69.5583 35.41 68.6983 34.51 67.7383 33.49C65.8383 34.34 63.8183 35.23 61.8283 36.17C61.5883 36.29 61.3583 36.72 61.3583 37.01C61.3483 37.66 61.3383 38.37 61.5883 38.95C62.1083 40.17 61.4883 40.73 60.5383 41.24C58.9883 42.08 57.4583 42.97 55.8083 43.9C55.6483 41.18 55.5183 38.59 55.3383 36C55.0683 32.09 54.7583 28.18 54.4683 24.27C54.4583 24.16 54.4683 24.05 54.4583 23.94C54.3783 21.79 54.3783 21.77 56.3283 20.9C57.9183 20.19 59.5183 19.49 61.1383 18.87C61.4683 18.75 62.0783 18.87 62.3183 19.12C65.6883 22.58 69.0283 26.07 72.3683 29.57C73.7583 31.03 75.1183 32.53 76.5783 34.1ZM65.0183 30.32C63.3283 28.42 61.7483 26.64 60.1583 24.87C60.0883 24.92 60.0183 24.96 59.9383 25.01C60.2283 27.37 60.5083 29.73 60.8083 32.14C62.2583 31.52 63.5683 30.95 65.0183 30.32Z" fill="white"/>
<path d="M128.928 23.7C130.318 24.8 131.558 25.88 132.908 26.81C133.578 27.27 133.578 27.53 133.128 28.13C130.838 31.19 128.568 34.26 126.328 37.36C125.308 38.77 125.628 40.29 127.078 41.47C128.268 42.45 130.178 42.48 131.168 41.34C132.838 39.41 134.388 37.37 135.958 35.36C137.008 34.01 138.008 32.62 139.068 31.2C140.608 32.42 142.078 33.59 143.618 34.81C141.538 37.58 139.448 40.39 137.348 43.18C136.758 43.96 136.158 44.75 135.498 45.47C133.318 47.82 130.778 48.49 127.708 47.28C124.828 46.15 122.468 44.39 120.848 41.8C119.348 39.41 119.348 36.63 121.338 33.95C123.848 30.54 126.378 27.14 128.928 23.7Z" fill="white"/>
<path d="M157.198 55.55C155.748 55.96 154.408 56.35 153.198 56.7C152.538 54.86 151.978 53 151.208 51.23C150.818 50.34 150.258 49.38 149.078 49.24C148.048 49.12 147.528 49.47 147.628 50.48C147.738 51.5 148.118 52.5 148.398 53.5C148.788 54.89 149.358 56.26 149.538 57.68C149.778 59.65 148.878 62.52 146.468 63.63C144.278 64.64 142.208 64.13 140.328 62.71C137.138 60.29 135.468 56.91 134.348 53.19C134.178 52.64 134.058 52.04 134.098 51.47C134.118 51.15 134.448 50.68 134.738 50.58C135.998 50.15 137.298 49.83 138.398 49.52C139.038 51.62 139.608 53.7 140.328 55.74C140.558 56.4 141.108 56.96 141.578 57.51C142.118 58.15 142.938 58.33 143.508 57.77C143.908 57.38 144.198 56.53 144.068 56C143.598 54.07 142.758 52.23 142.388 50.29C141.618 46.25 143.598 42.99 147.608 43.08C149.908 43.13 151.688 44.57 153.138 46.28C154.998 48.46 156.368 50.93 157.038 53.74C157.168 54.28 157.148 54.88 157.198 55.55Z" fill="white"/>
<path d="M28.198 44.68C29.288 45.88 30.258 46.96 31.188 47.99C29.968 49.28 28.828 50.45 27.728 51.67C27.438 51.98 27.208 52.38 27.068 52.78C26.838 53.45 26.778 54.11 27.498 54.6C28.218 55.09 28.838 54.93 29.418 54.39C30.628 53.26 31.768 52.05 33.048 51.02C36.538 48.19 41.198 49.86 42.248 54.23C42.818 56.62 42.158 58.73 41.028 60.79C39.608 63.37 37.748 65.49 35.118 66.89C34.518 67.21 34.078 67.24 33.608 66.67C32.818 65.71 31.978 64.8 31.258 63.98C32.668 62.84 34.148 61.82 35.388 60.57C36.168 59.78 36.638 58.66 37.158 57.64C37.568 56.84 37.138 56.11 36.448 55.86C35.988 55.69 35.188 55.87 34.798 56.2C33.448 57.33 32.278 58.69 30.898 59.78C29.188 61.13 27.218 61.43 25.148 60.54C23.008 59.61 22.218 57.81 22.098 55.65C21.938 52.74 23.398 50.4 25.048 48.21C25.958 46.95 27.118 45.87 28.198 44.68Z" fill="white"/>
<path d="M31.8477 39.25C36.2377 35.27 40.5077 31.4 44.8377 27.47C45.9177 28.66 46.9777 29.83 48.1377 31.11C46.6077 32.37 45.1177 33.59 43.5677 34.86C46.8577 38.6 50.0877 42.28 53.0077 45.59C51.7577 47.16 50.5777 48.65 49.3577 50.19C45.8177 46.24 42.5377 42.59 39.2477 38.93C37.9577 40.23 36.6477 41.56 35.2277 42.99C34.0777 41.72 33.0277 40.56 31.8477 39.25Z" fill="white"/>
<path d="M69.8086 136.98C70.5886 136.24 71.3086 135.52 72.0886 134.86C72.2686 134.71 72.6786 134.72 72.9386 134.79C75.9086 135.59 78.8586 136.49 81.8486 137.19C83.3286 137.54 84.8886 137.56 86.4186 137.71C87.2986 137.8 88.1786 137.92 89.0486 137.92C94.9586 137.93 100.719 136.96 106.279 134.96C106.899 134.74 107.309 134.72 107.779 135.25C108.329 135.87 108.989 136.4 109.709 137.07C96.3386 142.66 83.0886 142.66 69.8086 136.98Z" fill="white"/>
<path d="M16.7903 99.34C17.5003 96.97 18.0703 94.85 18.7903 92.78C19.0403 92.05 18.8303 91.68 18.3203 91.3C16.6603 90.06 15.0003 88.81 13.0703 87.37C14.8603 87.37 16.3803 87.37 17.9003 87.37C20.5803 87.37 20.5803 87.37 21.4103 84.81C21.6303 84.12 21.8503 83.44 22.0803 82.75C22.3103 82.07 22.5503 81.39 22.8703 80.47C23.3103 81.73 23.6903 82.8 24.0603 83.88C24.3603 84.78 24.7003 85.67 24.9203 86.59C25.0703 87.23 25.4003 87.38 26.0103 87.37C28.1103 87.34 30.2103 87.36 32.6003 87.36C31.1203 88.5 29.8703 89.5 28.5803 90.46C26.6703 91.87 26.6703 91.85 27.3803 94.18C27.8603 95.76 28.3003 97.36 28.8403 99.24C27.2203 97.98 25.8303 96.9 24.4303 95.82C24.1103 95.58 23.7503 95.38 23.4903 95.08C23.0203 94.54 22.6803 94.7 22.2003 95.09C20.4803 96.49 18.7303 97.83 16.7903 99.34Z" fill="white"/>
<path d="M152.84 91.87C150.9 90.4 149.01 88.97 146.98 87.43C149.52 87.43 151.9 87.43 154.36 87.43C155.11 85.11 155.84 82.83 156.66 80.28C157.37 82.48 158.06 84.41 158.61 86.37C158.83 87.14 159.14 87.42 159.95 87.39C161.98 87.33 164.01 87.37 166.32 87.37C164.86 88.49 163.62 89.5 162.33 90.44C160.45 91.8 160.44 91.78 161.1 94.03C161.59 95.71 162.08 97.39 162.64 99.29C160.89 97.9 159.31 96.68 157.76 95.42C157.05 94.84 156.52 94.58 155.65 95.35C154.14 96.7 152.45 97.86 150.57 99.3C151.37 96.63 152.1 94.28 152.84 91.87Z" fill="white"/>
<path d="M107.9 125.35C111.32 125.35 114.63 125.35 117.91 125.35C117.91 127.57 118.08 129.81 117.87 132.01C117.64 134.45 114.92 135.86 112.28 135.31C111.34 135.12 110.38 134.81 109.56 134.34C108.34 133.63 108.04 132.3 107.93 131.02C107.82 129.59 107.9 128.14 107.89 126.7C107.9 126.27 107.9 125.84 107.9 125.35Z" fill="white"/>
<path d="M61.3704 125.36C64.7104 125.36 67.9404 125.36 71.4404 125.36C71.3304 127.77 71.3704 130.19 71.0504 132.56C70.8404 134.12 69.2004 135.23 67.6204 135.27C66.5504 135.3 65.3904 135.44 64.4204 135.1C61.9604 134.24 61.5304 132.96 61.3704 130.7C61.3104 129.82 61.3704 128.93 61.3704 128.04C61.3704 127.16 61.3704 126.29 61.3704 125.36Z" fill="white"/>
<path d="M127.169 85.99C126.949 83.16 126.759 80.4 126.519 77.63C126.419 76.51 126.249 75.39 126.089 74.27C125.909 73 126.849 71.75 128.089 71.63C129.439 71.5 130.639 72.53 130.729 73.96C130.899 76.48 131.029 79.01 131.179 81.53C131.189 81.64 131.169 81.75 131.189 81.86C131.579 84.83 130.329 86.17 127.169 85.99Z" fill="white"/>
<path d="M52.2874 86.03C49.6074 85.96 48.1274 84.99 48.0874 83.31C48.0574 81.92 48.1574 80.52 48.2574 79.12C48.3774 77.29 48.5474 75.47 48.6874 73.64C48.7774 72.46 49.7274 71.62 50.9774 71.63C52.2474 71.64 53.1774 72.48 53.1074 73.75C52.9374 76.7 52.6774 79.65 52.4674 82.61C52.3874 83.73 52.3474 84.85 52.2874 86.03Z" fill="white"/>
<path d="M22.8423 109.28L22.6523 108.06L28.5323 107.14L28.7223 108.36L22.8423 109.28Z" fill="white"/>
<path d="M24.172 115.72L23.932 114.68L27.052 111.29L27.042 111.24L23.352 112.08L23.082 110.88L28.892 109.57L29.132 110.63L26.012 114L26.022 114.06L29.712 113.22L29.982 114.42L24.172 115.72Z" fill="white"/>
<path d="M30.2206 115.3L31.7506 119.93L30.7806 120.25L30.2106 118.52L25.5206 120.07L25.1406 118.91L29.8306 117.36L29.2606 115.63L30.2206 115.3Z" fill="white"/>
<path d="M32.1128 120.79L33.7228 124.46L32.7828 124.87L31.6728 122.34L30.3428 122.92L31.3728 125.27L30.4328 125.68L29.4028 123.33L28.0728 123.91L29.1828 126.45L28.2428 126.86L26.6328 123.19L32.1128 120.79Z" fill="white"/>
<path d="M34.6336 128.3C34.1736 127.5 33.2536 127.3 32.1636 127.92C31.0636 128.54 30.7436 129.43 31.2136 130.25C31.6336 130.99 32.3036 131.19 32.9636 130.83L32.3236 129.71L33.1336 129.25L34.3636 131.41L33.7236 131.78C32.3636 132.55 31.0036 132.09 30.2636 130.78C29.4336 129.33 29.8936 127.76 31.5336 126.83C33.2136 125.87 34.8036 126.36 35.5836 127.73C36.2436 128.9 36.0436 130.21 35.1036 130.93L34.4836 129.84C34.8736 129.43 34.9536 128.87 34.6336 128.3Z" fill="white"/>
<path d="M37.373 130.9L38.743 132.79C39.543 133.89 39.373 134.97 38.423 135.66C37.763 136.14 37.063 136.18 36.433 135.8L35.303 138.19L34.503 137.08L35.543 134.92L34.983 134.15L33.273 135.39L32.543 134.39L37.373 130.9ZM36.313 134.27C36.743 134.86 37.193 134.97 37.673 134.62C38.163 134.27 38.213 133.79 37.783 133.19L37.273 132.48L35.793 133.55L36.313 134.27Z" fill="white"/>
<path d="M35.9727 139.05L41.7627 136.56L42.8327 137.73L39.8227 143.26L38.9327 142.28L39.6527 141.03L38.2027 139.44L36.8827 140.03L35.9727 139.05ZM40.1527 140.15L41.3327 138.06L41.3027 138.03L39.1227 139.02L40.1527 140.15Z" fill="white"/>
<path d="M44.1434 139.14L47.7734 142.4L47.0934 143.16L45.7334 141.94L42.4334 145.61L41.5234 144.79L44.8234 141.12L43.4634 139.9L44.1434 139.14Z" fill="white"/>
<path d="M48.5022 142.96L51.7322 145.32L51.1322 146.14L48.9022 144.51L48.0422 145.68L50.1022 147.19L49.5022 148.01L47.4422 146.5L46.5822 147.67L48.8222 149.31L48.2222 150.13L44.9922 147.76L48.5022 142.96Z" fill="white"/>
<path d="M49.6211 151.08L52.6411 145.94L54.4711 147.02C56.0211 147.93 56.4011 149.45 55.4611 151.05C54.5111 152.66 53.0011 153.07 51.4311 152.15L49.6211 151.08ZM51.9311 151.2C52.9111 151.78 53.7211 151.56 54.4011 150.41C55.0711 149.27 54.8611 148.46 53.8811 147.89L53.1711 147.47L51.2311 150.78L51.9311 151.2Z" fill="white"/>
<path d="M59.8916 149.9L62.0816 150.81C63.3016 151.32 63.6616 152.16 63.3116 152.98C63.0416 153.63 62.4616 153.85 61.8316 153.75L61.8116 153.8C62.4216 154.09 62.8016 154.83 62.4616 155.64C62.1016 156.51 61.1716 156.89 59.9316 156.37L57.6016 155.4L59.8916 149.9ZM61.3216 155.05C61.5116 154.59 61.3016 154.11 60.7416 153.88L59.7416 153.47L59.1316 154.94L60.0916 155.34C60.7516 155.62 61.1516 155.46 61.3216 155.05ZM62.0816 152.69C62.2416 152.3 62.0716 151.9 61.5516 151.68L60.6516 151.3L60.0816 152.68L60.9616 153.05C61.4316 153.25 61.9016 153.13 62.0816 152.69Z" fill="white"/>
<path d="M69.7127 153.45L68.5627 157.14C68.1727 158.39 66.9727 158.92 65.5627 158.48C64.1527 158.04 63.4727 156.92 63.8627 155.67L65.0127 151.98L66.1927 152.35L65.0727 155.95C64.8727 156.6 65.1827 157.23 65.8927 157.45C66.6027 157.67 67.2127 157.34 67.4127 156.68L68.5327 153.08L69.7127 153.45Z" fill="white"/>
<path d="M72.8025 155.15C72.1925 155.02 71.7925 155.22 71.7025 155.61C71.6025 156.03 72.0025 156.32 72.4725 156.54L72.9625 156.78C73.9125 157.22 74.5425 157.9 74.3325 158.87C74.0925 159.94 73.1125 160.43 71.7025 160.12C70.2925 159.81 69.5425 158.96 69.7825 157.71L70.9525 157.97C70.8625 158.57 71.2625 158.97 71.9025 159.11C72.5325 159.25 73.0125 159.04 73.1125 158.61C73.2025 158.22 72.8825 157.95 72.2825 157.65L71.6825 157.36C70.7525 156.9 70.2625 156.28 70.4525 155.43C70.6825 154.37 71.7725 153.87 73.0425 154.15C74.3325 154.43 75.0225 155.34 74.8125 156.37L73.6525 156.11C73.7025 155.63 73.3925 155.28 72.8025 155.15Z" fill="white"/>
<path d="M78.9114 161.26L77.6914 161.1L78.4714 155.19L79.6914 155.35L78.9114 161.26Z" fill="white"/>
<path d="M85.4209 161.85L84.3509 161.77L82.0309 157.8H81.9809L81.6909 161.57L80.4609 161.48L80.9109 155.54L81.9909 155.62L84.3009 159.59H84.3609L84.6409 155.82L85.8609 155.91L85.4209 161.85Z" fill="white"/>
<path d="M87.0934 155.93L91.0234 155.98L91.0034 157L88.3134 156.97L88.2934 158.42L90.7334 158.45L90.7234 159.47L88.2834 159.44L88.2534 161.91L87.0234 161.89L87.0934 155.93Z" fill="white"/>
<path d="M95.0321 161.84C93.4421 161.93 92.1821 160.88 92.0621 158.95C91.9521 157.01 93.0821 155.82 94.6721 155.73C96.2421 155.64 97.5121 156.68 97.6321 158.62C97.7421 160.56 96.6021 161.75 95.0321 161.84ZM94.7321 156.82C93.8121 156.87 93.2421 157.6 93.3221 158.87C93.4021 160.14 94.0421 160.8 94.9621 160.74C95.8821 160.69 96.4421 159.96 96.3621 158.69C96.2921 157.42 95.6521 156.77 94.7321 156.82Z" fill="white"/>
<path d="M98.5117 155.53L100.822 155.21C102.162 155.02 103.042 155.68 103.202 156.84C103.312 157.65 103.022 158.28 102.392 158.66L103.962 160.78L102.612 160.97L101.202 159.03L100.262 159.16L100.552 161.25L99.3317 161.42L98.5117 155.53ZM100.992 158.05C101.722 157.95 102.022 157.6 101.942 157.01C101.862 156.42 101.462 156.14 100.742 156.24L99.8817 156.36L100.132 158.17L100.992 158.05Z" fill="white"/>
<path d="M105.453 154.42L107.983 157.98L108.043 157.97L108.733 153.66L110.223 153.31L111.573 159.11L110.403 159.38L109.513 155.58L109.463 155.59L108.833 159.72L108.033 159.91L105.633 156.47L105.583 156.48L106.473 160.3L105.303 160.57L103.953 154.77L105.453 154.42Z" fill="white"/>
<path d="M112.961 158.69L112.941 152.38L114.441 151.86L118.351 156.8L117.101 157.24L116.231 156.09L114.201 156.8L114.231 158.25L112.961 158.69ZM115.611 155.29L114.151 153.39L114.111 153.4L114.161 155.8L115.611 155.29Z" fill="white"/>
<path d="M116.262 151.21L120.712 149.2L121.132 150.13L119.462 150.88L121.492 155.38L120.372 155.88L118.342 151.38L116.672 152.13L116.262 151.21Z" fill="white"/>
<path d="M125.461 153.39L124.371 153.97L121.551 148.72L122.641 148.13L125.461 153.39Z" fill="white"/>
<path d="M129.231 151.23C127.901 152.09 126.281 151.8 125.231 150.17C124.181 148.54 124.581 146.95 125.911 146.09C127.231 145.24 128.851 145.52 129.911 147.15C130.961 148.78 130.551 150.38 129.231 151.23ZM126.501 147.01C125.731 147.51 125.591 148.42 126.281 149.49C126.971 150.56 127.861 150.81 128.631 150.31C129.401 149.81 129.531 148.9 128.841 147.83C128.161 146.76 127.281 146.51 126.501 147.01Z" fill="white"/>
<path d="M136.722 145.47L135.902 146.15L131.472 144.9L131.432 144.93L133.842 147.85L132.892 148.64L129.102 144.05L129.942 143.36L134.362 144.62L134.402 144.58L131.992 141.66L132.942 140.88L136.722 145.47Z" fill="white"/>
<path d="M137.501 137.54C137.081 138.01 137.071 138.45 137.351 138.72C137.661 139.01 138.111 138.81 138.541 138.51L139.001 138.2C139.851 137.6 140.751 137.37 141.491 138.04C142.301 138.77 142.251 139.87 141.281 140.95C140.321 142.02 139.211 142.26 138.231 141.43L139.031 140.54C139.501 140.91 140.051 140.76 140.491 140.27C140.921 139.79 140.981 139.27 140.651 138.97C140.351 138.7 139.961 138.85 139.401 139.22L138.851 139.6C138.001 140.18 137.211 140.31 136.561 139.72C135.751 138.99 135.861 137.81 136.731 136.84C137.611 135.86 138.741 135.7 139.531 136.39L138.741 137.27C138.371 137 137.911 137.1 137.501 137.54Z" fill="white"/>
<path d="M138.922 134.44L141.292 131.22L142.112 131.82L140.472 134.05L141.642 134.91L143.152 132.85L143.972 133.45L142.462 135.51L143.632 136.37L145.272 134.14L146.092 134.74L143.722 137.97L138.922 134.44Z" fill="white"/>
<path d="M141.902 130.28L143.102 128.27C143.802 127.1 144.852 126.83 145.862 127.44C146.562 127.86 146.882 128.48 146.782 129.22L149.422 129.32L148.722 130.49L146.322 130.38L145.832 131.19L147.652 132.28L147.022 133.34L141.902 130.28ZM145.432 129.93C145.812 129.3 145.732 128.84 145.222 128.54C144.702 128.23 144.242 128.37 143.862 129L143.412 129.75L144.982 130.69L145.432 129.93Z" fill="white"/>
<path d="M149.781 125.4L149.801 125.35L146.321 122.09L146.901 120.86L151.411 125.27L150.731 126.71L144.461 126.03L145.051 124.78L149.781 125.4Z" fill="white"/>
<path d="M153.174 121.03L152.724 122.18L147.164 120.02L147.614 118.87L153.174 121.03Z" fill="white"/>
<path d="M149.851 115.49C149.571 116.38 150.071 117.17 151.271 117.55C152.501 117.93 153.331 117.55 153.601 116.68C153.801 116.03 153.591 115.44 153.021 115.13L153.401 113.94C154.411 114.4 155.091 115.58 154.641 117.03C154.161 118.55 152.741 119.34 150.891 118.76C149.041 118.18 148.331 116.7 148.801 115.2C149.211 113.89 150.271 113.13 151.631 113.38L151.261 114.57C150.591 114.46 150.051 114.83 149.851 115.49Z" fill="white"/>
<path d="M149.871 111.73L150.741 107.82L151.741 108.04L151.141 110.74L152.551 111.06L153.111 108.56L154.111 108.78L153.551 111.28L154.961 111.6L155.561 108.89L156.561 109.11L155.691 113.02L149.871 111.73Z" fill="white"/>
</svg>
