<svg width="504" height="124" viewBox="0 0 504 124" fill="none" xmlns="http://www.w3.org/2000/svg">
<path d="M34.2389 16.69C27.5389 16.69 24.5589 19.24 24.4589 22.86C24.3489 26.79 27.9689 29.03 35.0889 30.52L41.4689 32C58.0589 35.51 65.3889 43.59 65.4989 55.39C65.3889 70.49 53.7989 79 34.3389 79C14.4589 79 1.59891 70.28 1.37891 51.35H20.7289C21.0489 58.47 26.0489 62.3 34.0189 62.3C40.9289 62.3 44.6489 59.43 44.7589 55.39C44.6489 51.67 41.5689 49.54 32.9589 47.63L25.1989 45.93C11.6989 42.95 3.39891 36.26 3.39891 24.35C3.29891 9.78 16.1589 0 34.2389 0C52.7389 0 64.3289 9.89 64.4389 24.88H44.9789C44.5489 19.67 41.1489 16.69 34.2389 16.69Z" fill="#333333"/>
<path d="M71.5586 1.06006H137.909V17.4301H114.729V78.0301H94.7286V17.4301H71.5586V1.06006Z" fill="#333333"/>
<path d="M133.488 78.0401L159.108 1.06006H186.648L212.168 78.0401H190.368L185.798 62.9401H159.958L155.388 78.0401H133.488ZM181.118 47.6301L173.148 21.7901H172.508L164.638 47.6301H181.118Z" fill="#333333"/>
<path d="M219.82 1.06006H252.57C269.79 1.06006 281.06 10.8401 281.06 27.1101C281.06 37.7401 276.17 45.2901 267.88 49.2301L283.62 78.0401H261.61L248 52.4201H240.03V78.0401H219.83V1.06006H219.82ZM247.89 36.5801C255.55 36.5801 259.9 33.8201 259.9 27.1201C259.9 20.3201 255.54 17.2301 247.89 17.2301H240.02V36.5801H247.89Z" fill="#333333"/>
<path d="M290.207 1.06006H323.167C340.707 1.06006 349.957 8.61006 349.957 20.4101C349.957 28.9201 343.897 35.4001 335.177 37.2101V37.9501C344.857 38.2701 352.937 45.3901 352.937 56.3401C352.937 68.8901 342.727 78.0301 325.927 78.0301H290.207V1.06006ZM329.117 24.6701C329.117 19.7801 325.287 17.0101 319.757 17.0101H310.397V32.3201H319.437C325.077 32.3201 329.117 29.5601 329.117 24.6701ZM331.567 53.8001C331.567 48.1701 327.527 44.9801 321.037 44.9801H310.407V61.7801H320.717C327.947 61.7701 331.567 59.0101 331.567 53.8001Z" fill="#333333"/>
<path d="M426.729 1.06006V50.5001C426.729 67.9401 413.439 79.0001 393.659 79.0001C373.879 79.0001 360.699 67.9401 360.699 50.5001V1.06006H380.899V48.7001C380.899 56.1401 386.219 61.4601 393.659 61.4601C401.209 61.4601 406.529 56.1401 406.529 48.7001V1.06006H426.729Z" fill="#333333"/>
<path d="M467.87 16.69C461.17 16.69 458.19 19.24 458.09 22.86C457.98 26.79 461.6 29.03 468.72 30.52L475.1 32C491.69 35.51 499.02 43.59 499.13 55.39C499.02 70.49 487.43 78.99 467.98 78.99C448.1 78.99 435.23 70.27 435.02 51.35H454.37C454.69 58.47 459.69 62.3 467.66 62.3C474.57 62.3 478.29 59.43 478.4 55.39C478.29 51.67 475.21 49.54 466.6 47.63L458.84 45.93C445.34 42.95 437.04 36.25 437.04 24.35C436.93 9.78 449.8 0 467.87 0C486.37 0 497.96 9.89 498.07 24.88H478.61C478.19 19.67 474.78 16.69 467.87 16.69Z" fill="#333333"/>
<path d="M3.3 123.25H0V104.89H3.3V123.25Z" fill="#333333"/>
<path d="M21.8088 123.25H18.8688L10.1688 110.7H10.0188V123.25H6.71875V104.89H9.70875L18.3588 117.44H18.5388V104.89H21.8088V123.25Z" fill="#333333"/>
<path d="M24.3984 104.89H39.0284V107.65H33.3684V123.25H30.0684V107.65H24.3984V104.89Z" fill="#333333"/>
<path d="M41.6194 104.89H53.5594V107.65H44.9094V112.67H52.9194V115.43H44.9094V120.45H53.6094V123.24H41.6094V104.89H41.6194Z" fill="#333333"/>
<path d="M64.6995 107.6C61.7295 107.6 59.5995 109.91 59.5995 114.04C59.5995 118.22 61.6995 120.53 64.7695 120.53C67.5295 120.53 69.3095 118.86 69.3595 116.24H65.0995V113.63H72.5595V115.84C72.5595 120.56 69.3095 123.5 64.7695 123.5C59.6995 123.5 56.2695 119.9 56.2695 114.07C56.2695 108.19 59.8495 104.64 64.6595 104.64C68.7195 104.64 71.8395 107.15 72.3895 110.75H69.0195C68.4495 108.79 66.9295 107.6 64.6995 107.6Z" fill="#333333"/>
<path d="M75.5608 104.89H82.4608C86.6708 104.89 88.9308 107.25 88.9308 110.75C88.9308 113.25 87.7908 115.1 85.6308 115.97L89.5908 123.25H85.9008L82.3008 116.53H78.8508V123.25H75.5508V104.89H75.5608ZM81.9508 113.76C84.4408 113.76 85.5508 112.69 85.5508 110.74C85.5508 108.79 84.4308 107.65 81.9508 107.65H78.8608V113.76H81.9508Z" fill="#333333"/>
<path d="M90.5703 123.25L97.0403 104.89H101.1L107.59 123.25H104.07L102.55 118.71H95.6303L94.1103 123.25H90.5703ZM101.65 116.05L99.1403 108.64H98.9903L96.5003 116.05H101.65Z" fill="#333333"/>
<path d="M106.74 104.89H121.37V107.65H115.71V123.25H112.41V107.65H106.73V104.89H106.74Z" fill="#333333"/>
<path d="M123.959 104.89H135.899V107.65H127.249V112.67H135.259V115.43H127.249V120.45H135.949V123.24H123.949V104.89H123.959Z" fill="#333333"/>
<path d="M139.078 123.25V104.89H145.418C150.898 104.89 154.218 108.34 154.218 114.04C154.218 119.77 150.898 123.25 145.318 123.25H139.078ZM145.138 120.38C148.968 120.38 150.918 118.27 150.918 114.04C150.918 109.83 148.968 107.75 145.238 107.75H142.368V120.38H145.138Z" fill="#333333"/>
<path d="M163.301 104.89H170.321C174.301 104.89 176.281 106.92 176.281 109.66C176.281 111.89 174.861 113.13 173.061 113.57V113.75C175.011 113.85 176.991 115.47 176.991 118.26C176.991 121.13 174.941 123.26 170.731 123.26H163.301V104.89ZM172.991 110.06C172.991 108.64 171.981 107.63 170.001 107.63H166.601V112.7H169.921C171.671 112.7 172.991 111.68 172.991 110.06ZM173.651 118C173.651 116.35 172.361 115.08 170.301 115.08H166.601V120.48H170.231C172.631 120.48 173.651 119.44 173.651 118Z" fill="#333333"/>
<path d="M194.6 104.89V116.89C194.6 120.82 191.61 123.53 187.14 123.53C182.65 123.53 179.68 120.82 179.68 116.89V104.89H182.98V116.61C182.98 118.92 184.6 120.59 187.14 120.59C189.68 120.59 191.27 118.92 191.27 116.61V104.89H194.6Z" fill="#333333"/>
<path d="M204.51 107.45C202.43 107.45 201.16 108.46 201.16 109.83C201.16 111.38 202.78 112.01 204.3 112.37L206.02 112.83C208.76 113.46 211.4 114.91 211.4 118.1C211.4 121.32 208.86 123.53 204.45 123.53C200.16 123.53 197.48 121.48 197.32 117.85H200.57C200.72 119.78 202.35 120.72 204.42 120.72C206.6 120.72 208.1 119.65 208.1 118.08C208.1 116.63 206.76 116.03 204.78 115.52L202.7 114.99C199.68 114.2 197.81 112.68 197.81 110.04C197.81 106.79 200.7 104.64 204.56 104.64C208.47 104.64 211.1 106.85 211.15 109.94H207.98C207.83 108.36 206.49 107.45 204.51 107.45Z" fill="#333333"/>
<path d="M223.609 123.25H220.309V104.89H223.609V123.25Z" fill="#333333"/>
<path d="M242.129 123.25H239.189L230.489 110.7H230.339V123.25H227.039V104.89H230.029L238.679 117.44H238.859V104.89H242.129V123.25Z" fill="#333333"/>
<path d="M245.531 104.89H257.301V107.65H248.831V112.67H256.491V115.43H248.831V123.24H245.531V104.89Z" fill="#333333"/>
<path d="M268.049 123.5C263.229 123.5 259.629 119.97 259.629 114.07C259.629 108.14 263.229 104.64 268.049 104.64C272.869 104.64 276.469 108.14 276.469 114.07C276.469 120 272.859 123.5 268.049 123.5ZM268.049 107.6C265.059 107.6 262.949 109.88 262.949 114.07C262.949 118.26 265.049 120.54 268.049 120.54C271.039 120.54 273.149 118.26 273.149 114.07C273.149 109.88 271.039 107.6 268.049 107.6Z" fill="#333333"/>
<path d="M279.41 104.89H286.31C290.52 104.89 292.78 107.25 292.78 110.75C292.78 113.25 291.64 115.1 289.48 115.97L293.44 123.25H289.76L286.16 116.53H282.71V123.25H279.41V104.89ZM285.8 113.76C288.29 113.76 289.4 112.69 289.4 110.74C289.4 108.79 288.28 107.65 285.8 107.65H282.71V113.76H285.8Z" fill="#333333"/>
<path d="M299.672 104.89L305.122 118.23H305.352L310.802 104.89H314.862V123.25H311.692V110.62H311.512L306.412 123.2H304.052L298.952 110.57H298.802V123.25H295.602V104.89H299.672Z" fill="#333333"/>
<path d="M317.07 123.25L323.54 104.89H327.6L334.09 123.25H330.56L329.04 118.71H322.12L320.6 123.25H317.07ZM328.16 116.05L325.65 108.64H325.5L323.01 116.05H328.16Z" fill="#333333"/>
<path d="M333.24 104.89H347.87V107.65H342.21V123.25H338.91V107.65H333.23V104.89H333.24Z" fill="#333333"/>
<path d="M353.761 123.25H350.461V104.89H353.761V123.25Z" fill="#333333"/>
<path d="M365.15 123.5C360.33 123.5 356.73 119.97 356.73 114.07C356.73 108.14 360.33 104.64 365.15 104.64C369.97 104.64 373.57 108.14 373.57 114.07C373.57 120 369.97 123.5 365.15 123.5ZM365.15 107.6C362.16 107.6 360.05 109.88 360.05 114.07C360.05 118.26 362.15 120.54 365.15 120.54C368.14 120.54 370.25 118.26 370.25 114.07C370.25 109.88 368.14 107.6 365.15 107.6Z" fill="#333333"/>
<path d="M391.602 123.25H388.662L379.962 110.7H379.812V123.25H376.512V104.89H379.502L388.152 117.44H388.332V104.89H391.602V123.25Z" fill="#333333"/>
<path d="M407.678 107.45C405.598 107.45 404.328 108.46 404.328 109.83C404.328 111.38 405.948 112.01 407.468 112.37L409.188 112.83C411.928 113.46 414.568 114.91 414.568 118.1C414.568 121.32 412.028 123.53 407.618 123.53C403.328 123.53 400.648 121.48 400.488 117.85H403.738C403.888 119.78 405.518 120.72 407.588 120.72C409.768 120.72 411.268 119.65 411.268 118.08C411.268 116.63 409.928 116.03 407.948 115.52L405.868 114.99C402.848 114.2 400.978 112.68 400.978 110.04C400.978 106.79 403.868 104.64 407.728 104.64C411.638 104.64 414.268 106.85 414.318 109.94H411.148C410.998 108.36 409.658 107.45 407.678 107.45Z" fill="#333333"/>
<path d="M417.319 104.89H429.259V107.65H420.609V112.67H428.619V115.43H420.609V120.45H429.309V123.24H417.309V104.89H417.319Z" fill="#333333"/>
<path d="M432.441 104.89H439.341C443.551 104.89 445.811 107.25 445.811 110.75C445.811 113.25 444.671 115.1 442.511 115.97L446.471 123.25H442.791L439.191 116.53H435.741V123.25H432.441V104.89ZM438.831 113.76C441.321 113.76 442.431 112.69 442.431 110.74C442.431 108.79 441.311 107.65 438.831 107.65H435.741V113.76H438.831Z" fill="#333333"/>
<path d="M455.361 119.37H455.561L460.351 104.89H463.981L457.491 123.25H453.431L446.961 104.89H450.591L455.361 119.37Z" fill="#333333"/>
<path d="M469.472 123.25H466.172V104.89H469.472V123.25Z" fill="#333333"/>
<path d="M480.881 107.6C477.861 107.6 475.761 109.91 475.761 114.07C475.761 118.28 477.891 120.54 480.881 120.54C483.061 120.54 484.841 119.32 485.271 117.17H488.591C488.081 120.69 485.191 123.51 480.831 123.51C475.991 123.51 472.441 119.98 472.441 114.08C472.441 108.15 476.041 104.65 480.831 104.65C484.891 104.65 488.031 107.01 488.591 111.09H485.271C484.891 108.87 483.111 107.6 480.881 107.6Z" fill="#333333"/>
<path d="M491.432 104.89H503.372V107.65H494.722V112.67H502.732V115.43H494.722V120.45H503.422V123.24H491.422V104.89H491.432Z" fill="#333333"/>
</svg>
